<svg xmlns="http://www.w3.org/2000/svg" xmlns:xlink="http://www.w3.org/1999/xlink" width="450" zoomAndPan="magnify" viewBox="0 0 337.5 131.249995" height="175" preserveAspectRatio="xMidYMid meet" version="1.0"><defs><g/><clipPath id="a6e4f5cdd5"><path d="M 8.027344 8.105469 L 122.292969 8.105469 L 122.292969 122.371094 L 8.027344 122.371094 Z M 8.027344 8.105469 " clip-rule="nonzero"/></clipPath></defs><path fill="#c0c0c0" d="M 109.507812 73.789062 L 98.347656 73.789062 L 74.699219 32.972656 L 85.941406 32.972656 L 109.507812 73.789062 " fill-opacity="1" fill-rule="nonzero"/><path fill="#c0c0c0" d="M 66.464844 47.234375 L 74.699219 32.972656 L 80.289062 42.621094 L 72.042969 56.902344 L 66.464844 47.234375 " fill-opacity="1" fill-rule="nonzero"/><path fill="#f6dc8d" d="M 40.878906 32.972656 L 58.144531 62.773438 L 78.199219 97.503906 L 89.4375 97.503906 L 72.175781 67.703125 L 52.121094 32.972656 L 40.878906 32.972656 " fill-opacity="1" fill-rule="nonzero"/><path fill="#c0c0c0" d="M 20.808594 56.6875 L 31.972656 56.6875 L 55.621094 97.503906 L 44.378906 97.503906 L 20.808594 56.6875 " fill-opacity="1" fill-rule="nonzero"/><path fill="#c0c0c0" d="M 63.855469 83.242188 L 55.621094 97.503906 L 50.03125 87.855469 L 58.273438 73.574219 L 63.855469 83.242188 " fill-opacity="1" fill-rule="nonzero"/><path fill="#f6dc8d" d="M 83.847656 87.855469 L 89.4375 97.503906 L 97.675781 83.242188 L 86.515625 83.242188 L 83.847656 87.855469 " fill-opacity="1" fill-rule="nonzero"/><path fill="#f6dc8d" d="M 46.46875 42.621094 L 40.878906 32.972656 L 32.644531 47.234375 L 43.804688 47.234375 L 46.46875 42.621094 " fill-opacity="1" fill-rule="nonzero"/><g clip-path="url(#a6e4f5cdd5)"><path fill="#2f2f42" d="M 65.160156 113.105469 C 38.722656 113.105469 17.289062 91.675781 17.289062 65.238281 C 17.289062 38.800781 38.722656 17.371094 65.160156 17.371094 C 91.597656 17.371094 113.027344 38.800781 113.027344 65.238281 C 113.027344 91.675781 91.597656 113.105469 65.160156 113.105469 Z M 65.160156 8.105469 C 33.605469 8.105469 8.027344 33.683594 8.027344 65.238281 C 8.027344 96.792969 33.605469 122.371094 65.160156 122.371094 C 96.714844 122.371094 122.292969 96.792969 122.292969 65.238281 C 122.292969 33.683594 96.714844 8.105469 65.160156 8.105469 " fill-opacity="1" fill-rule="nonzero"/></g><g fill="#2f2f42" fill-opacity="1"><g transform="translate(143.496596, 68.598939)"><g><path d="M 32.546875 -7.84375 L 13.921875 -7.84375 L 10.828125 0 L -0.296875 0 L 18.0625 -42.578125 L 29.203125 -42.578125 L 47.140625 0 L 35.578125 0 Z M 29.375 -16.0625 L 23.296875 -31.8125 L 17.09375 -16.0625 Z M 29.375 -16.0625 "/></g></g></g><g fill="#2f2f42" fill-opacity="1"><g transform="translate(199.089068, 68.598939)"><g><path d="M 20.625 -43.0625 C 26.988281 -43.0625 32.582031 -41.484375 37.40625 -38.328125 L 33.328125 -29.859375 C 31.097656 -31.160156 28.707031 -32.226562 26.15625 -33.0625 C 23.601562 -33.894531 21.453125 -34.3125 19.703125 -34.3125 C 16.585938 -34.3125 15.03125 -33.273438 15.03125 -31.203125 C 15.03125 -29.867188 15.796875 -28.796875 17.328125 -27.984375 C 18.867188 -27.171875 20.742188 -26.46875 22.953125 -25.875 C 25.171875 -25.289062 27.382812 -24.582031 29.59375 -23.75 C 31.800781 -22.914062 33.675781 -21.566406 35.21875 -19.703125 C 36.757812 -17.835938 37.53125 -15.488281 37.53125 -12.65625 C 37.53125 -8.5625 35.925781 -5.367188 32.71875 -3.078125 C 29.519531 -0.785156 25.445312 0.359375 20.5 0.359375 C 16.96875 0.359375 13.476562 -0.242188 10.03125 -1.453125 C 6.582031 -2.671875 3.582031 -4.335938 1.03125 -6.453125 L 5.234375 -14.78125 C 7.378906 -12.914062 9.910156 -11.382812 12.828125 -10.1875 C 15.753906 -8.988281 18.351562 -8.390625 20.625 -8.390625 C 22.363281 -8.390625 23.71875 -8.703125 24.6875 -9.328125 C 25.664062 -9.960938 26.15625 -10.890625 26.15625 -12.109375 C 26.15625 -13.285156 25.597656 -14.265625 24.484375 -15.046875 C 23.367188 -15.835938 21.976562 -16.425781 20.3125 -16.8125 C 18.65625 -17.195312 16.851562 -17.710938 14.90625 -18.359375 C 12.957031 -19.015625 11.148438 -19.726562 9.484375 -20.5 C 7.828125 -21.269531 6.441406 -22.492188 5.328125 -24.171875 C 4.210938 -25.859375 3.65625 -27.878906 3.65625 -30.234375 C 3.65625 -34.128906 5.203125 -37.238281 8.296875 -39.5625 C 11.398438 -41.894531 15.507812 -43.0625 20.625 -43.0625 Z M 20.625 -43.0625 "/></g></g></g><g fill="#2f2f42" fill-opacity="1"><g transform="translate(247.018076, 68.598939)"><g><path d="M 15.078125 0 L 4.265625 0 L 4.265625 -42.578125 L 15.078125 -42.578125 Z M 15.078125 0 "/></g></g></g><g fill="#2f2f42" fill-opacity="1"><g transform="translate(275.119401, 68.598939)"><g><path d="M 32.546875 -21.65625 L 41.90625 -21.65625 L 41.90625 -5.046875 C 39.59375 -3.421875 36.804688 -2.09375 33.546875 -1.0625 C 30.285156 -0.03125 27.171875 0.484375 24.203125 0.484375 C 17.722656 0.484375 12.3125 -1.59375 7.96875 -5.75 C 3.625 -9.90625 1.453125 -15.085938 1.453125 -21.296875 C 1.453125 -27.453125 3.679688 -32.597656 8.140625 -36.734375 C 12.609375 -40.867188 18.207031 -42.9375 24.9375 -42.9375 C 28.101562 -42.9375 31.242188 -42.367188 34.359375 -41.234375 C 37.484375 -40.097656 40.144531 -38.5625 42.34375 -36.625 L 36.25 -29.265625 C 34.707031 -30.679688 32.921875 -31.800781 30.890625 -32.625 C 28.867188 -33.457031 26.863281 -33.875 24.875 -33.875 C 21.382812 -33.875 18.453125 -32.664062 16.078125 -30.25 C 13.710938 -27.84375 12.53125 -24.859375 12.53125 -21.296875 C 12.53125 -17.679688 13.722656 -14.65625 16.109375 -12.21875 C 18.503906 -9.789062 21.46875 -8.578125 25 -8.578125 C 27.269531 -8.578125 29.785156 -9.265625 32.546875 -10.640625 Z M 32.546875 -21.65625 "/></g></g></g><g fill="#2f2f42" fill-opacity="1"><g transform="translate(143.496596, 102.441306)"><g><path d="M 10.59375 -3.359375 L 3.4375 -3.359375 L 1.953125 0 L -0.015625 0 L 6.078125 -13.453125 L 7.96875 -13.453125 L 14.09375 0 L 12.0625 0 Z M 9.921875 -4.90625 L 7.015625 -11.5 L 4.109375 -4.90625 Z M 9.921875 -4.90625 "/></g></g></g><g fill="#2f2f42" fill-opacity="1"><g transform="translate(157.565333, 102.441306)"><g><path d="M 7.59375 0.15625 C 5.800781 0.15625 4.40625 -0.351562 3.40625 -1.375 C 2.40625 -2.40625 1.90625 -3.878906 1.90625 -5.796875 L 1.90625 -13.453125 L 3.828125 -13.453125 L 3.828125 -5.875 C 3.828125 -3 5.085938 -1.5625 7.609375 -1.5625 C 8.835938 -1.5625 9.78125 -1.914062 10.4375 -2.625 C 11.09375 -3.332031 11.421875 -4.414062 11.421875 -5.875 L 11.421875 -13.453125 L 13.28125 -13.453125 L 13.28125 -5.796875 C 13.28125 -3.867188 12.78125 -2.394531 11.78125 -1.375 C 10.78125 -0.351562 9.382812 0.15625 7.59375 0.15625 Z M 7.59375 0.15625 "/></g></g></g><g fill="#2f2f42" fill-opacity="1"><g transform="translate(172.768021, 102.441306)"><g><path d="M 2.015625 -13.453125 L 7.6875 -13.453125 C 9.113281 -13.453125 10.375 -13.171875 11.46875 -12.609375 C 12.570312 -12.046875 13.425781 -11.253906 14.03125 -10.234375 C 14.644531 -9.210938 14.953125 -8.039062 14.953125 -6.71875 C 14.953125 -5.40625 14.644531 -4.238281 14.03125 -3.21875 C 13.425781 -2.195312 12.570312 -1.40625 11.46875 -0.84375 C 10.375 -0.28125 9.113281 0 7.6875 0 L 2.015625 0 Z M 7.578125 -1.671875 C 8.660156 -1.671875 9.613281 -1.878906 10.4375 -2.296875 C 11.269531 -2.722656 11.910156 -3.316406 12.359375 -4.078125 C 12.804688 -4.847656 13.03125 -5.726562 13.03125 -6.71875 C 13.03125 -7.71875 12.804688 -8.597656 12.359375 -9.359375 C 11.910156 -10.128906 11.269531 -10.722656 10.4375 -11.140625 C 9.613281 -11.566406 8.660156 -11.78125 7.578125 -11.78125 L 3.9375 -11.78125 L 3.9375 -1.671875 Z M 7.578125 -1.671875 "/></g></g></g><g fill="#2f2f42" fill-opacity="1"><g transform="translate(188.643399, 102.441306)"><g><path d="M 2.015625 -13.453125 L 3.9375 -13.453125 L 3.9375 0 L 2.015625 0 Z M 2.015625 -13.453125 "/></g></g></g><g fill="#2f2f42" fill-opacity="1"><g transform="translate(194.601473, 102.441306)"><g><path d="M 4.6875 -11.78125 L 0.078125 -11.78125 L 0.078125 -13.453125 L 11.203125 -13.453125 L 11.203125 -11.78125 L 6.59375 -11.78125 L 6.59375 0 L 4.6875 0 Z M 4.6875 -11.78125 "/></g></g></g><g fill="#2f2f42" fill-opacity="1"><g transform="translate(205.893022, 102.441306)"><g/></g></g><g fill="#2f2f42" fill-opacity="1"><g transform="translate(211.06309, 102.441306)"><g/></g></g><g fill="#2f2f42" fill-opacity="1"><g transform="translate(216.233159, 102.441306)"><g/></g></g><g fill="#2f2f42" fill-opacity="1"><g transform="translate(221.413359, 102.441306)"><g><path d="M 8.03125 0.15625 C 6.6875 0.15625 5.472656 -0.140625 4.390625 -0.734375 C 3.304688 -1.335938 2.457031 -2.160156 1.84375 -3.203125 C 1.226562 -4.242188 0.921875 -5.414062 0.921875 -6.71875 C 0.921875 -8.03125 1.226562 -9.207031 1.84375 -10.25 C 2.457031 -11.289062 3.304688 -12.109375 4.390625 -12.703125 C 5.484375 -13.304688 6.703125 -13.609375 8.046875 -13.609375 C 9.097656 -13.609375 10.0625 -13.429688 10.9375 -13.078125 C 11.8125 -12.722656 12.554688 -12.203125 13.171875 -11.515625 L 11.921875 -10.296875 C 10.898438 -11.359375 9.632812 -11.890625 8.125 -11.890625 C 7.125 -11.890625 6.21875 -11.664062 5.40625 -11.21875 C 4.601562 -10.769531 3.972656 -10.148438 3.515625 -9.359375 C 3.066406 -8.578125 2.84375 -7.695312 2.84375 -6.71875 C 2.84375 -5.75 3.066406 -4.867188 3.515625 -4.078125 C 3.972656 -3.296875 4.601562 -2.679688 5.40625 -2.234375 C 6.21875 -1.785156 7.125 -1.5625 8.125 -1.5625 C 9.625 -1.5625 10.890625 -2.097656 11.921875 -3.171875 L 13.171875 -1.953125 C 12.554688 -1.265625 11.804688 -0.738281 10.921875 -0.375 C 10.046875 -0.0195312 9.082031 0.15625 8.03125 0.15625 Z M 8.03125 0.15625 "/></g></g></g><g fill="#2f2f42" fill-opacity="1"><g transform="translate(235.309117, 102.441306)"><g><path d="M 8.09375 0.15625 C 6.726562 0.15625 5.5 -0.140625 4.40625 -0.734375 C 3.320312 -1.335938 2.46875 -2.160156 1.84375 -3.203125 C 1.226562 -4.253906 0.921875 -5.425781 0.921875 -6.71875 C 0.921875 -8.019531 1.226562 -9.191406 1.84375 -10.234375 C 2.46875 -11.285156 3.320312 -12.109375 4.40625 -12.703125 C 5.5 -13.304688 6.726562 -13.609375 8.09375 -13.609375 C 9.4375 -13.609375 10.648438 -13.304688 11.734375 -12.703125 C 12.828125 -12.109375 13.679688 -11.289062 14.296875 -10.25 C 14.910156 -9.207031 15.21875 -8.03125 15.21875 -6.71875 C 15.21875 -5.414062 14.910156 -4.242188 14.296875 -3.203125 C 13.679688 -2.160156 12.828125 -1.335938 11.734375 -0.734375 C 10.648438 -0.140625 9.4375 0.15625 8.09375 0.15625 Z M 8.09375 -1.5625 C 9.082031 -1.5625 9.96875 -1.785156 10.75 -2.234375 C 11.539062 -2.679688 12.160156 -3.296875 12.609375 -4.078125 C 13.066406 -4.867188 13.296875 -5.75 13.296875 -6.71875 C 13.296875 -7.695312 13.066406 -8.578125 12.609375 -9.359375 C 12.160156 -10.148438 11.539062 -10.769531 10.75 -11.21875 C 9.96875 -11.664062 9.082031 -11.890625 8.09375 -11.890625 C 7.101562 -11.890625 6.207031 -11.664062 5.40625 -11.21875 C 4.601562 -10.769531 3.972656 -10.148438 3.515625 -9.359375 C 3.066406 -8.578125 2.84375 -7.695312 2.84375 -6.71875 C 2.84375 -5.75 3.066406 -4.867188 3.515625 -4.078125 C 3.972656 -3.296875 4.601562 -2.679688 5.40625 -2.234375 C 6.207031 -1.785156 7.101562 -1.5625 8.09375 -1.5625 Z M 8.09375 -1.5625 "/></g></g></g><g fill="#2f2f42" fill-opacity="1"><g transform="translate(251.453564, 102.441306)"><g><path d="M 13.59375 -13.453125 L 13.59375 0 L 12.015625 0 L 3.9375 -10.03125 L 3.9375 0 L 2.015625 0 L 2.015625 -13.453125 L 3.59375 -13.453125 L 11.671875 -3.421875 L 11.671875 -13.453125 Z M 13.59375 -13.453125 "/></g></g></g><g fill="#2f2f42" fill-opacity="1"><g transform="translate(267.059861, 102.441306)"><g><path d="M 5.9375 0.15625 C 4.925781 0.15625 3.945312 0 3 -0.3125 C 2.0625 -0.625 1.320312 -1.03125 0.78125 -1.53125 L 1.5 -3.03125 C 2.007812 -2.570312 2.664062 -2.195312 3.46875 -1.90625 C 4.269531 -1.625 5.09375 -1.484375 5.9375 -1.484375 C 7.050781 -1.484375 7.882812 -1.671875 8.4375 -2.046875 C 8.988281 -2.421875 9.265625 -2.925781 9.265625 -3.5625 C 9.265625 -4.019531 9.113281 -4.390625 8.8125 -4.671875 C 8.507812 -4.960938 8.132812 -5.1875 7.6875 -5.34375 C 7.25 -5.5 6.628906 -5.671875 5.828125 -5.859375 C 4.816406 -6.109375 4 -6.351562 3.375 -6.59375 C 2.75 -6.832031 2.210938 -7.203125 1.765625 -7.703125 C 1.328125 -8.210938 1.109375 -8.898438 1.109375 -9.765625 C 1.109375 -10.484375 1.296875 -11.128906 1.671875 -11.703125 C 2.054688 -12.273438 2.632812 -12.734375 3.40625 -13.078125 C 4.175781 -13.429688 5.128906 -13.609375 6.265625 -13.609375 C 7.054688 -13.609375 7.835938 -13.503906 8.609375 -13.296875 C 9.378906 -13.085938 10.039062 -12.796875 10.59375 -12.421875 L 9.953125 -10.875 C 9.390625 -11.238281 8.785156 -11.507812 8.140625 -11.6875 C 7.503906 -11.875 6.878906 -11.96875 6.265625 -11.96875 C 5.171875 -11.96875 4.351562 -11.769531 3.8125 -11.375 C 3.269531 -10.976562 3 -10.46875 3 -9.84375 C 3 -9.375 3.148438 -8.992188 3.453125 -8.703125 C 3.765625 -8.421875 4.144531 -8.195312 4.59375 -8.03125 C 5.050781 -7.875 5.671875 -7.707031 6.453125 -7.53125 C 7.460938 -7.289062 8.273438 -7.046875 8.890625 -6.796875 C 9.515625 -6.554688 10.046875 -6.1875 10.484375 -5.6875 C 10.921875 -5.1875 11.140625 -4.515625 11.140625 -3.671875 C 11.140625 -2.960938 10.945312 -2.316406 10.5625 -1.734375 C 10.1875 -1.148438 9.609375 -0.6875 8.828125 -0.34375 C 8.046875 -0.0078125 7.082031 0.15625 5.9375 0.15625 Z M 5.9375 0.15625 "/></g></g></g><g fill="#2f2f42" fill-opacity="1"><g transform="translate(278.995223, 102.441306)"><g><path d="M 7.59375 0.15625 C 5.800781 0.15625 4.40625 -0.351562 3.40625 -1.375 C 2.40625 -2.40625 1.90625 -3.878906 1.90625 -5.796875 L 1.90625 -13.453125 L 3.828125 -13.453125 L 3.828125 -5.875 C 3.828125 -3 5.085938 -1.5625 7.609375 -1.5625 C 8.835938 -1.5625 9.78125 -1.914062 10.4375 -2.625 C 11.09375 -3.332031 11.421875 -4.414062 11.421875 -5.875 L 11.421875 -13.453125 L 13.28125 -13.453125 L 13.28125 -5.796875 C 13.28125 -3.867188 12.78125 -2.394531 11.78125 -1.375 C 10.78125 -0.351562 9.382812 0.15625 7.59375 0.15625 Z M 7.59375 0.15625 "/></g></g></g><g fill="#2f2f42" fill-opacity="1"><g transform="translate(294.197911, 102.441306)"><g><path d="M 2.015625 -13.453125 L 3.9375 -13.453125 L 3.9375 -1.671875 L 11.21875 -1.671875 L 11.21875 0 L 2.015625 0 Z M 2.015625 -13.453125 "/></g></g></g><g fill="#2f2f42" fill-opacity="1"><g transform="translate(305.614349, 102.441306)"><g><path d="M 4.6875 -11.78125 L 0.078125 -11.78125 L 0.078125 -13.453125 L 11.203125 -13.453125 L 11.203125 -11.78125 L 6.59375 -11.78125 L 6.59375 0 L 4.6875 0 Z M 4.6875 -11.78125 "/></g></g></g></svg>