<svg xmlns="http://www.w3.org/2000/svg" xmlns:xlink="http://www.w3.org/1999/xlink" width="450" zoomAndPan="magnify" viewBox="0 0 337.5 131.249995" height="175" preserveAspectRatio="xMidYMid meet" version="1.0"><defs><g/><clipPath id="b46444f2f0"><path d="M 44 21.738281 L 142.617188 21.738281 L 142.617188 121 L 44 121 Z M 44 21.738281 " clip-rule="nonzero"/></clipPath><clipPath id="3af20e865a"><path d="M 37 21 L 45 21 L 45 43 L 37 43 Z M 37 21 " clip-rule="nonzero"/></clipPath><clipPath id="3c091f83c4"><path d="M -4.929688 27.289062 L 19.734375 -0.265625 L 51.339844 28.027344 L 26.675781 55.578125 Z M -4.929688 27.289062 " clip-rule="nonzero"/></clipPath><clipPath id="0551ad9ace"><path d="M -4.929688 27.289062 L 19.734375 -0.265625 L 51.339844 28.027344 L 26.675781 55.578125 Z M -4.929688 27.289062 " clip-rule="nonzero"/></clipPath><clipPath id="bf27be33b4"><path d="M 2 30 L 33 30 L 33 46 L 2 46 Z M 2 30 " clip-rule="nonzero"/></clipPath><clipPath id="b619cbbc76"><path d="M -4.929688 27.289062 L 19.734375 -0.265625 L 51.339844 28.027344 L 26.675781 55.578125 Z M -4.929688 27.289062 " clip-rule="nonzero"/></clipPath><clipPath id="dc3c5fd4a1"><path d="M -4.929688 27.289062 L 19.734375 -0.265625 L 51.339844 28.027344 L 26.675781 55.578125 Z M -4.929688 27.289062 " clip-rule="nonzero"/></clipPath><clipPath id="1864a2bce6"><path d="M 15 3 L 36 3 L 36 42 L 15 42 Z M 15 3 " clip-rule="nonzero"/></clipPath><clipPath id="2651b92955"><path d="M -4.929688 27.289062 L 19.734375 -0.265625 L 51.339844 28.027344 L 26.675781 55.578125 Z M -4.929688 27.289062 " clip-rule="nonzero"/></clipPath><clipPath id="cbcd2749b5"><path d="M -4.929688 27.289062 L 19.734375 -0.265625 L 51.339844 28.027344 L 26.675781 55.578125 Z M -4.929688 27.289062 " clip-rule="nonzero"/></clipPath></defs><g clip-path="url(#b46444f2f0)"><path fill="#a9d6bf" d="M 60.335938 21.738281 C 54.582031 26.113281 56.972656 30.359375 55.558594 35.484375 C 53.832031 41.675781 48.429688 42.515625 48.476562 35.882812 C 48.519531 32.699219 48.875 29.914062 51.398438 26.644531 C 45.554688 29.695312 43.652344 50.429688 55.203125 41.230469 L 78.574219 22.488281 L 142.617188 73.769531 L 119.25 73.769531 L 119.25 120.453125 L 76.980469 120.453125 L 73.882812 118.15625 C 87.425781 115.8125 85.34375 96.980469 103.050781 93.621094 C 89.328125 100.207031 86.539062 113.515625 97.207031 106.707031 C 104.246094 102.285156 101.367188 93.398438 112.34375 91.628906 C 97.695312 86.589844 89.375 91.808594 86.007812 99.324219 C 85.210938 91.628906 81.007812 83.761719 76.671875 78.277344 C 73.304688 74.078125 69.410156 70.496094 65.25 67.09375 C 61.929688 64.351562 58.390625 61.699219 55.292969 58.695312 C 41.925781 45.832031 38.117188 24.078125 60.335938 21.738281 Z M 95.039062 78.632812 C 95.347656 83.847656 94.417969 87.695312 87.691406 90.878906 C 83.621094 83.054688 83.621094 76.023438 96.367188 71.292969 C 95.171875 73.636719 94.726562 76.070312 95.039062 78.632812 Z M 95.039062 78.632812 " fill-opacity="1" fill-rule="evenodd"/></g><path fill="#b8e8d0" d="M 56.53125 105.421875 C 46.75 97.820312 39.84375 89.15625 34.003906 74.917969 C 39.402344 97.863281 53.609375 111.039062 66.222656 120.453125 C 34.269531 119.835938 7.757812 89.597656 39.3125 35.484375 C 39.84375 63.601562 58.613281 65.988281 71.582031 82.304688 C 87.160156 101.886719 79.105469 122.886719 56.53125 105.421875 Z M 56.53125 105.421875 " fill-opacity="1" fill-rule="evenodd"/><g clip-path="url(#3af20e865a)"><g clip-path="url(#3c091f83c4)"><g clip-path="url(#0551ad9ace)"><path fill="#b8e8d0" d="M 38.128906 42.371094 C 36.796875 38.785156 36.683594 34.75 37.808594 31.070312 C 38.9375 27.394531 41.300781 24.097656 44.421875 21.847656 C 45.617188 29.101562 43.261719 37.050781 38.128906 42.371094 " fill-opacity="1" fill-rule="nonzero"/></g></g></g><g clip-path="url(#bf27be33b4)"><g clip-path="url(#b619cbbc76)"><g clip-path="url(#dc3c5fd4a1)"><path fill="#b8e8d0" d="M 32.332031 45.136719 C 29.609375 39.914062 25.125 35.644531 19.777344 33.183594 C 14.425781 30.722656 8.246094 30.085938 2.476562 31.402344 C 9.527344 40.222656 21.003906 45.636719 32.332031 45.136719 " fill-opacity="1" fill-rule="nonzero"/></g></g></g><g clip-path="url(#1864a2bce6)"><g clip-path="url(#2651b92955)"><g clip-path="url(#cbcd2749b5)"><path fill="#b8e8d0" d="M 35.019531 41.890625 C 28.171875 38.5 22.503906 32.796875 19.164062 25.917969 C 15.820312 19.039062 14.820312 11.03125 16.363281 3.5 C 28.003906 12.410156 35.347656 27.160156 35.019531 41.890625 " fill-opacity="1" fill-rule="nonzero"/></g></g></g><g fill="#2f2f42" fill-opacity="1"><g transform="translate(149.16871, 64.253453)"><g><path d="M 1.6875 -16.9375 C 1.6875 -20.25 2.4375 -23.21875 3.9375 -25.84375 C 5.4375 -28.476562 7.484375 -30.53125 10.078125 -32 C 12.679688 -33.46875 15.59375 -34.203125 18.8125 -34.203125 C 22.59375 -34.203125 25.898438 -33.234375 28.734375 -31.296875 C 31.566406 -29.359375 33.550781 -26.679688 34.6875 -23.265625 L 26.890625 -23.265625 C 26.117188 -24.878906 25.03125 -26.085938 23.625 -26.890625 C 22.226562 -27.703125 20.609375 -28.109375 18.765625 -28.109375 C 16.796875 -28.109375 15.046875 -27.644531 13.515625 -26.71875 C 11.984375 -25.800781 10.789062 -24.503906 9.9375 -22.828125 C 9.082031 -21.148438 8.65625 -19.1875 8.65625 -16.9375 C 8.65625 -14.707031 9.082031 -12.742188 9.9375 -11.046875 C 10.789062 -9.359375 11.984375 -8.050781 13.515625 -7.125 C 15.046875 -6.207031 16.796875 -5.75 18.765625 -5.75 C 20.609375 -5.75 22.226562 -6.160156 23.625 -6.984375 C 25.03125 -7.804688 26.117188 -9.023438 26.890625 -10.640625 L 34.6875 -10.640625 C 33.550781 -7.191406 31.570312 -4.503906 28.75 -2.578125 C 25.9375 -0.660156 22.625 0.296875 18.8125 0.296875 C 15.59375 0.296875 12.679688 -0.4375 10.078125 -1.90625 C 7.484375 -3.375 5.4375 -5.414062 3.9375 -8.03125 C 2.4375 -10.644531 1.6875 -13.613281 1.6875 -16.9375 Z M 1.6875 -16.9375 "/></g></g></g><g fill="#2f2f42" fill-opacity="1"><g transform="translate(188.730247, 64.253453)"><g><path d="M 19.015625 0.34375 C 15.847656 0.34375 12.941406 -0.394531 10.296875 -1.875 C 7.660156 -3.363281 5.566406 -5.421875 4.015625 -8.046875 C 2.460938 -10.679688 1.6875 -13.660156 1.6875 -16.984375 C 1.6875 -20.265625 2.460938 -23.21875 4.015625 -25.84375 C 5.566406 -28.476562 7.660156 -30.535156 10.296875 -32.015625 C 12.941406 -33.503906 15.847656 -34.25 19.015625 -34.25 C 22.203125 -34.25 25.109375 -33.503906 27.734375 -32.015625 C 30.367188 -30.535156 32.453125 -28.476562 33.984375 -25.84375 C 35.515625 -23.21875 36.28125 -20.265625 36.28125 -16.984375 C 36.28125 -13.660156 35.515625 -10.679688 33.984375 -8.046875 C 32.453125 -5.421875 30.363281 -3.363281 27.71875 -1.875 C 25.070312 -0.394531 22.171875 0.34375 19.015625 0.34375 Z M 19.015625 -5.703125 C 21.046875 -5.703125 22.832031 -6.160156 24.375 -7.078125 C 25.925781 -8.003906 27.132812 -9.320312 28 -11.03125 C 28.875 -12.738281 29.3125 -14.722656 29.3125 -16.984375 C 29.3125 -19.234375 28.875 -21.203125 28 -22.890625 C 27.132812 -24.585938 25.925781 -25.890625 24.375 -26.796875 C 22.832031 -27.703125 21.046875 -28.15625 19.015625 -28.15625 C 16.984375 -28.15625 15.179688 -27.703125 13.609375 -26.796875 C 12.046875 -25.890625 10.828125 -24.585938 9.953125 -22.890625 C 9.085938 -21.203125 8.65625 -19.234375 8.65625 -16.984375 C 8.65625 -14.722656 9.085938 -12.738281 9.953125 -11.03125 C 10.828125 -9.320312 12.046875 -8.003906 13.609375 -7.078125 C 15.179688 -6.160156 16.984375 -5.703125 19.015625 -5.703125 Z M 19.015625 -5.703125 "/></g></g></g><g fill="#2f2f42" fill-opacity="1"><g transform="translate(229.113947, 64.253453)"><g><path d="M 15 0.34375 C 12.644531 0.34375 10.523438 -0.0546875 8.640625 -0.859375 C 6.753906 -1.671875 5.257812 -2.832031 4.15625 -4.34375 C 3.0625 -5.863281 2.5 -7.65625 2.46875 -9.71875 L 9.71875 -9.71875 C 9.820312 -8.332031 10.316406 -7.234375 11.203125 -6.421875 C 12.085938 -5.617188 13.300781 -5.21875 14.84375 -5.21875 C 16.425781 -5.21875 17.671875 -5.597656 18.578125 -6.359375 C 19.484375 -7.117188 19.9375 -8.113281 19.9375 -9.34375 C 19.9375 -10.34375 19.628906 -11.160156 19.015625 -11.796875 C 18.398438 -12.441406 17.628906 -12.953125 16.703125 -13.328125 C 15.785156 -13.703125 14.523438 -14.113281 12.921875 -14.5625 C 10.722656 -15.207031 8.9375 -15.84375 7.5625 -16.46875 C 6.195312 -17.101562 5.019531 -18.054688 4.03125 -19.328125 C 3.050781 -20.597656 2.5625 -22.296875 2.5625 -24.421875 C 2.5625 -26.421875 3.0625 -28.160156 4.0625 -29.640625 C 5.0625 -31.128906 6.460938 -32.269531 8.265625 -33.0625 C 10.078125 -33.851562 12.144531 -34.25 14.46875 -34.25 C 17.945312 -34.25 20.773438 -33.398438 22.953125 -31.703125 C 25.128906 -30.015625 26.332031 -27.65625 26.5625 -24.625 L 19.109375 -24.625 C 19.046875 -25.78125 18.550781 -26.738281 17.625 -27.5 C 16.707031 -28.257812 15.492188 -28.640625 13.984375 -28.640625 C 12.660156 -28.640625 11.601562 -28.300781 10.8125 -27.625 C 10.019531 -26.945312 9.625 -25.960938 9.625 -24.671875 C 9.625 -23.765625 9.921875 -23.015625 10.515625 -22.421875 C 11.117188 -21.828125 11.863281 -21.34375 12.75 -20.96875 C 13.632812 -20.601562 14.882812 -20.175781 16.5 -19.6875 C 18.6875 -19.039062 20.472656 -18.394531 21.859375 -17.75 C 23.253906 -17.101562 24.445312 -16.132812 25.4375 -14.84375 C 26.4375 -13.5625 26.9375 -11.867188 26.9375 -9.765625 C 26.9375 -7.960938 26.46875 -6.285156 25.53125 -4.734375 C 24.601562 -3.191406 23.234375 -1.957031 21.421875 -1.03125 C 19.617188 -0.113281 17.476562 0.34375 15 0.34375 Z M 15 0.34375 "/></g></g></g><g fill="#2f2f42" fill-opacity="1"><g transform="translate(260.985788, 64.253453)"><g><path d="M 26.3125 -33.765625 L 26.3125 -28.296875 L 17.3125 -28.296875 L 17.3125 0 L 10.546875 0 L 10.546875 -28.296875 L 1.546875 -28.296875 L 1.546875 -33.765625 Z M 26.3125 -33.765625 "/></g></g></g><g fill="#2f2f42" fill-opacity="1"><g transform="translate(291.309998, 64.253453)"><g><path d="M 24.046875 -6.4375 L 10.59375 -6.4375 L 8.375 0 L 1.25 0 L 13.40625 -33.8125 L 21.28125 -33.8125 L 33.421875 0 L 26.265625 0 Z M 22.203125 -11.859375 L 17.3125 -25.984375 L 12.4375 -11.859375 Z M 22.203125 -11.859375 "/></g></g></g><g fill="#2f2f42" fill-opacity="1"><g transform="translate(152.674817, 101.706078)"><g><path d="M 18.703125 -15.59375 C 18.703125 -14.382812 18.414062 -13.25 17.84375 -12.1875 C 17.269531 -11.132812 16.375 -10.285156 15.15625 -9.640625 C 13.9375 -8.992188 12.398438 -8.671875 10.546875 -8.671875 L 6.765625 -8.671875 L 6.765625 0 L 2.234375 0 L 2.234375 -22.59375 L 10.546875 -22.59375 C 12.296875 -22.59375 13.785156 -22.289062 15.015625 -21.6875 C 16.242188 -21.082031 17.164062 -20.25 17.78125 -19.1875 C 18.394531 -18.132812 18.703125 -16.9375 18.703125 -15.59375 Z M 10.359375 -12.328125 C 11.609375 -12.328125 12.535156 -12.613281 13.140625 -13.1875 C 13.742188 -13.757812 14.046875 -14.5625 14.046875 -15.59375 C 14.046875 -17.789062 12.816406 -18.890625 10.359375 -18.890625 L 6.765625 -18.890625 L 6.765625 -12.328125 Z M 10.359375 -12.328125 "/></g></g></g><g fill="#2f2f42" fill-opacity="1"><g transform="translate(173.967413, 101.706078)"><g><path d="M 16.078125 -4.296875 L 7.09375 -4.296875 L 5.59375 0 L 0.84375 0 L 8.96875 -22.625 L 14.234375 -22.625 L 22.359375 0 L 17.578125 0 Z M 14.859375 -7.921875 L 11.578125 -17.375 L 8.3125 -7.921875 Z M 14.859375 -7.921875 "/></g></g></g><g fill="#2f2f42" fill-opacity="1"><g transform="translate(198.754808, 101.706078)"><g><path d="M 13.875 0 L 8.90625 -8.796875 L 6.765625 -8.796875 L 6.765625 0 L 2.234375 0 L 2.234375 -22.59375 L 10.71875 -22.59375 C 12.457031 -22.59375 13.941406 -22.285156 15.171875 -21.671875 C 16.398438 -21.054688 17.320312 -20.222656 17.9375 -19.171875 C 18.550781 -18.128906 18.859375 -16.957031 18.859375 -15.65625 C 18.859375 -14.164062 18.425781 -12.820312 17.5625 -11.625 C 16.707031 -10.4375 15.425781 -9.613281 13.71875 -9.15625 L 19.125 0 Z M 6.765625 -12.203125 L 10.546875 -12.203125 C 11.773438 -12.203125 12.691406 -12.5 13.296875 -13.09375 C 13.898438 -13.6875 14.203125 -14.507812 14.203125 -15.5625 C 14.203125 -16.601562 13.898438 -17.40625 13.296875 -17.96875 C 12.691406 -18.539062 11.773438 -18.828125 10.546875 -18.828125 L 6.765625 -18.828125 Z M 6.765625 -12.203125 "/></g></g></g><g fill="#2f2f42" fill-opacity="1"><g transform="translate(221.115259, 101.706078)"><g><path d="M 16.078125 -4.296875 L 7.09375 -4.296875 L 5.59375 0 L 0.84375 0 L 8.96875 -22.625 L 14.234375 -22.625 L 22.359375 0 L 17.578125 0 Z M 14.859375 -7.921875 L 11.578125 -17.375 L 8.3125 -7.921875 Z M 14.859375 -7.921875 "/></g></g></g><g fill="#2f2f42" fill-opacity="1"><g transform="translate(245.902654, 101.706078)"><g><path d="M 10.125 -22.59375 C 12.5 -22.59375 14.585938 -22.125 16.390625 -21.1875 C 18.191406 -20.257812 19.582031 -18.9375 20.5625 -17.21875 C 21.539062 -15.507812 22.03125 -13.523438 22.03125 -11.265625 C 22.03125 -8.992188 21.539062 -7.007812 20.5625 -5.3125 C 19.582031 -3.625 18.191406 -2.316406 16.390625 -1.390625 C 14.585938 -0.460938 12.5 0 10.125 0 L 2.234375 0 L 2.234375 -22.59375 Z M 9.96875 -3.84375 C 12.34375 -3.84375 14.175781 -4.488281 15.46875 -5.78125 C 16.757812 -7.082031 17.40625 -8.910156 17.40625 -11.265625 C 17.40625 -13.609375 16.757812 -15.441406 15.46875 -16.765625 C 14.175781 -18.097656 12.34375 -18.765625 9.96875 -18.765625 L 6.765625 -18.765625 L 6.765625 -3.84375 Z M 9.96875 -3.84375 "/></g></g></g><g fill="#2f2f42" fill-opacity="1"><g transform="translate(270.722396, 101.706078)"><g><path d="M 6.765625 -22.59375 L 6.765625 0 L 2.234375 0 L 2.234375 -22.59375 Z M 6.765625 -22.59375 "/></g></g></g><g fill="#2f2f42" fill-opacity="1"><g transform="translate(281.336435, 101.706078)"><g><path d="M 10.03125 0.21875 C 8.457031 0.21875 7.039062 -0.046875 5.78125 -0.578125 C 4.519531 -1.117188 3.519531 -1.894531 2.78125 -2.90625 C 2.050781 -3.925781 1.675781 -5.125 1.65625 -6.5 L 6.5 -6.5 C 6.5625 -5.570312 6.890625 -4.835938 7.484375 -4.296875 C 8.078125 -3.765625 8.894531 -3.5 9.9375 -3.5 C 10.988281 -3.5 11.816406 -3.75 12.421875 -4.25 C 13.023438 -4.757812 13.328125 -5.425781 13.328125 -6.25 C 13.328125 -6.914062 13.125 -7.460938 12.71875 -7.890625 C 12.3125 -8.328125 11.800781 -8.664062 11.1875 -8.90625 C 10.570312 -9.15625 9.722656 -9.429688 8.640625 -9.734375 C 7.171875 -10.171875 5.976562 -10.597656 5.0625 -11.015625 C 4.144531 -11.441406 3.359375 -12.078125 2.703125 -12.921875 C 2.046875 -13.773438 1.71875 -14.914062 1.71875 -16.34375 C 1.71875 -17.675781 2.050781 -18.835938 2.71875 -19.828125 C 3.382812 -20.828125 4.320312 -21.585938 5.53125 -22.109375 C 6.738281 -22.640625 8.117188 -22.90625 9.671875 -22.90625 C 12.003906 -22.90625 13.894531 -22.335938 15.34375 -21.203125 C 16.800781 -20.078125 17.609375 -18.5 17.765625 -16.46875 L 12.78125 -16.46875 C 12.738281 -17.25 12.410156 -17.890625 11.796875 -18.390625 C 11.179688 -18.898438 10.367188 -19.15625 9.359375 -19.15625 C 8.472656 -19.15625 7.765625 -18.925781 7.234375 -18.46875 C 6.703125 -18.019531 6.4375 -17.363281 6.4375 -16.5 C 6.4375 -15.894531 6.632812 -15.394531 7.03125 -15 C 7.4375 -14.601562 7.9375 -14.28125 8.53125 -14.03125 C 9.125 -13.78125 9.957031 -13.492188 11.03125 -13.171875 C 12.5 -12.734375 13.695312 -12.300781 14.625 -11.875 C 15.550781 -11.445312 16.347656 -10.800781 17.015625 -9.9375 C 17.691406 -9.070312 18.03125 -7.9375 18.03125 -6.53125 C 18.03125 -5.320312 17.710938 -4.203125 17.078125 -3.171875 C 16.453125 -2.140625 15.535156 -1.316406 14.328125 -0.703125 C 13.117188 -0.0859375 11.6875 0.21875 10.03125 0.21875 Z M 10.03125 0.21875 "/></g></g></g><g fill="#2f2f42" fill-opacity="1"><g transform="translate(302.66139, 101.706078)"><g><path d="M 12.71875 0.21875 C 10.601562 0.21875 8.660156 -0.273438 6.890625 -1.265625 C 5.117188 -2.253906 3.710938 -3.628906 2.671875 -5.390625 C 1.640625 -7.148438 1.125 -9.140625 1.125 -11.359375 C 1.125 -13.554688 1.640625 -15.535156 2.671875 -17.296875 C 3.710938 -19.054688 5.117188 -20.429688 6.890625 -21.421875 C 8.660156 -22.410156 10.601562 -22.90625 12.71875 -22.90625 C 14.851562 -22.90625 16.800781 -22.410156 18.5625 -21.421875 C 20.320312 -20.429688 21.710938 -19.054688 22.734375 -17.296875 C 23.753906 -15.535156 24.265625 -13.554688 24.265625 -11.359375 C 24.265625 -9.140625 23.753906 -7.148438 22.734375 -5.390625 C 21.710938 -3.628906 20.316406 -2.253906 18.546875 -1.265625 C 16.773438 -0.273438 14.832031 0.21875 12.71875 0.21875 Z M 12.71875 -3.8125 C 14.070312 -3.8125 15.265625 -4.117188 16.296875 -4.734375 C 17.335938 -5.347656 18.148438 -6.226562 18.734375 -7.375 C 19.316406 -8.519531 19.609375 -9.847656 19.609375 -11.359375 C 19.609375 -12.867188 19.316406 -14.1875 18.734375 -15.3125 C 18.148438 -16.445312 17.335938 -17.316406 16.296875 -17.921875 C 15.265625 -18.523438 14.070312 -18.828125 12.71875 -18.828125 C 11.351562 -18.828125 10.148438 -18.523438 9.109375 -17.921875 C 8.066406 -17.316406 7.253906 -16.445312 6.671875 -15.3125 C 6.085938 -14.1875 5.796875 -12.867188 5.796875 -11.359375 C 5.796875 -9.847656 6.085938 -8.519531 6.671875 -7.375 C 7.253906 -6.226562 8.066406 -5.347656 9.109375 -4.734375 C 10.148438 -4.117188 11.351562 -3.8125 12.71875 -3.8125 Z M 12.71875 -3.8125 "/></g></g></g></svg>