<svg xmlns="http://www.w3.org/2000/svg" xmlns:xlink="http://www.w3.org/1999/xlink" width="500" zoomAndPan="magnify" viewBox="0 0 375 374.999991" height="500" preserveAspectRatio="xMidYMid meet" version="1.0"><defs><clipPath id="ac6f880ff6"><path d="M 11.335938 29.273438 L 363.835938 29.273438 L 363.835938 345 L 11.335938 345 Z M 11.335938 29.273438 " clip-rule="nonzero"/></clipPath></defs><path fill="#ffffff" d="M 228.855469 225.347656 L 222.09375 237.082031 C 220.058594 240.613281 216.289062 242.792969 212.210938 242.792969 L 160.425781 242.792969 C 156.347656 242.792969 152.578125 240.613281 150.539062 237.082031 L 143.78125 225.347656 Z M 247.777344 192.5 L 235.859375 213.1875 L 136.773438 213.1875 L 124.855469 192.5 Z M 236.296875 160.378906 L 247.796875 180.339844 L 124.835938 180.339844 L 136.335938 160.378906 Z M 212.210938 130.015625 C 216.289062 130.015625 220.058594 132.191406 222.09375 135.726562 L 229.292969 148.21875 L 143.34375 148.21875 L 150.539062 135.726562 C 152.578125 132.191406 156.347656 130.015625 160.425781 130.015625 Z M 212.210938 130.015625 " fill-opacity="1" fill-rule="nonzero"/><g clip-path="url(#ac6f880ff6)"><path fill="#bcbcbc" d="M 85.0625 124.570312 C 79.328125 96.765625 78.09375 75.4375 81.804688 59.953125 C 84.007812 50.742188 88.039062 43.226562 94.171875 37.808594 C 100.644531 32.085938 108.824219 29.277344 118.019531 29.277344 C 133.1875 29.277344 149.132812 36.191406 166.175781 49.324219 C 173.125 54.683594 180.339844 61.140625 187.828125 68.703125 C 188.425781 67.9375 189.101562 67.210938 189.851562 66.542969 C 211.03125 47.675781 228.863281 35.953125 244.117188 31.433594 C 253.183594 28.746094 261.699219 28.488281 269.453125 31.097656 C 277.636719 33.851562 284.15625 39.542969 288.757812 47.515625 C 296.351562 60.671875 298.355469 77.957031 295.523438 99.304688 C 294.371094 108.007812 292.398438 117.484375 289.609375 127.753906 C 290.660156 127.878906 291.714844 128.113281 292.757812 128.460938 C 319.632812 137.363281 338.660156 146.933594 350.183594 157.875 C 357.035156 164.382812 361.511719 171.632812 363.128906 179.652344 C 364.839844 188.121094 363.171875 196.613281 358.578125 204.578125 C 351 217.71875 337.0625 228.078125 317.210938 236.285156 C 309.238281 239.582031 300.21875 242.566406 290.140625 245.25 C 290.601562 246.289062 290.957031 247.390625 291.195312 248.546875 C 296.933594 276.351562 298.164062 297.679688 294.453125 313.164062 C 292.25 322.375 288.21875 329.886719 282.085938 335.308594 C 275.617188 341.03125 267.433594 343.839844 258.238281 343.839844 C 243.070312 343.839844 227.125 336.925781 210.085938 323.789062 C 203.058594 318.375 195.765625 311.835938 188.1875 304.171875 C 187.410156 305.390625 186.453125 306.523438 185.320312 307.53125 C 164.140625 326.398438 146.308594 338.121094 131.054688 342.640625 C 121.988281 345.328125 113.472656 345.585938 105.71875 342.976562 C 97.535156 340.222656 91.011719 334.53125 86.414062 326.5625 C 78.820312 313.402344 76.816406 296.117188 79.648438 274.769531 C 80.84375 265.753906 82.917969 255.902344 85.867188 245.203125 C 84.714844 245.085938 83.558594 244.84375 82.410156 244.464844 C 55.539062 235.5625 36.511719 225.988281 24.988281 215.046875 C 18.132812 208.539062 13.660156 201.292969 12.039062 193.269531 C 10.332031 184.804688 11.996094 176.308594 16.59375 168.34375 C 24.171875 155.207031 38.109375 144.84375 57.960938 136.636719 C 66.171875 133.246094 75.492188 130.179688 85.933594 127.433594 C 85.5625 126.523438 85.269531 125.566406 85.0625 124.570312 Z M 85.0625 124.570312 " fill-opacity="1" fill-rule="nonzero"/></g><path fill="#ffffff" d="M 272.445312 251.28125 C 275.117188 250.804688 277.679688 252.519531 278.277344 255.144531 L 278.308594 255.300781 L 278.59375 256.78125 C 287.832031 305.324219 281.324219 329.597656 259.074219 329.597656 C 237.304688 329.597656 209.59375 308.882812 175.941406 267.460938 C 175.195312 266.546875 174.796875 265.402344 174.804688 264.222656 C 174.828125 261.476562 177.035156 259.257812 179.761719 259.199219 L 179.921875 259.199219 L 181.691406 259.210938 C 195.855469 259.289062 209.621094 258.792969 222.996094 257.730469 C 238.78125 256.472656 255.265625 254.324219 272.445312 251.28125 Z M 119.644531 214.585938 L 119.730469 214.730469 L 120.621094 216.28125 C 127.746094 228.664062 135.171875 240.421875 142.894531 251.546875 C 151.988281 264.648438 162.21875 277.910156 173.578125 291.335938 C 175.335938 293.410156 175.136719 296.492188 173.152344 298.328125 L 173.023438 298.441406 L 171.878906 299.425781 C 134.292969 331.621094 109.859375 338.050781 98.585938 318.707031 C 87.550781 299.777344 91.554688 265.351562 110.589844 215.4375 C 111.007812 214.339844 111.792969 213.421875 112.8125 212.839844 C 115.199219 211.480469 118.21875 212.265625 119.644531 214.585938 Z M 291.519531 142.957031 L 291.675781 143.003906 L 293.089844 143.492188 C 339.488281 159.628906 357.113281 177.359375 345.972656 196.683594 C 335.074219 215.589844 303.394531 229.351562 250.933594 237.972656 C 249.761719 238.164062 248.5625 237.941406 247.539062 237.339844 C 245.125 235.921875 244.320312 232.816406 245.738281 230.402344 C 253.253906 217.625 260.019531 204.914062 266.042969 192.261719 C 272.871094 177.917969 279.277344 162.519531 285.265625 146.066406 C 286.171875 143.574219 288.839844 142.21875 291.367188 142.910156 Z M 127.632812 134.832031 C 130.046875 136.25 130.851562 139.355469 129.433594 141.769531 C 121.917969 154.546875 115.152344 167.261719 109.128906 179.910156 C 102.300781 194.257812 95.894531 209.65625 89.90625 226.105469 C 88.980469 228.652344 86.222656 230.011719 83.648438 229.21875 L 83.496094 229.167969 L 82.082031 228.679688 C 35.683594 212.546875 18.058594 194.816406 29.199219 175.488281 C 40.097656 156.585938 71.777344 142.824219 124.238281 134.199219 C 125.410156 134.007812 126.609375 134.230469 127.632812 134.832031 Z M 276.582031 55.367188 C 287.617188 74.296875 283.617188 108.722656 264.582031 158.636719 C 264.164062 159.734375 263.375 160.652344 262.355469 161.234375 C 259.972656 162.59375 256.953125 161.808594 255.523438 159.488281 L 255.441406 159.34375 L 254.550781 157.792969 C 247.425781 145.410156 240 133.652344 232.277344 122.527344 C 223.179688 109.425781 212.953125 96.164062 201.59375 82.738281 C 199.835938 80.664062 200.035156 77.582031 202.019531 75.746094 L 202.148438 75.632812 L 203.289062 74.648438 C 240.878906 42.453125 265.308594 36.023438 276.582031 55.367188 Z M 118 43.84375 C 139.765625 43.84375 167.480469 64.554688 201.132812 105.980469 C 201.875 106.894531 202.277344 108.039062 202.269531 109.21875 C 202.242188 111.964844 200.039062 114.183594 197.308594 114.242188 L 197.152344 114.242188 L 195.378906 114.230469 C 181.21875 114.152344 167.449219 114.648438 154.078125 115.710938 C 138.292969 116.96875 121.808594 119.117188 104.625 122.160156 C 101.953125 122.632812 99.394531 120.921875 98.796875 118.292969 L 98.765625 118.140625 L 98.480469 116.660156 C 89.242188 68.117188 95.75 43.84375 118 43.84375 Z M 118 43.84375 " fill-opacity="1" fill-rule="nonzero"/><path fill="#ffffff" d="M 164.589844 130.648438 L 208.054688 130.648438 C 214.414062 130.648438 220.285156 134.046875 223.449219 139.558594 L 245.273438 177.574219 C 248.414062 183.042969 248.414062 189.765625 245.273438 195.234375 L 223.449219 233.25 C 220.285156 238.761719 214.414062 242.160156 208.054688 242.160156 L 164.589844 242.160156 C 158.234375 242.160156 152.363281 238.761719 149.199219 233.25 L 127.371094 195.234375 C 124.234375 189.765625 124.234375 183.042969 127.371094 177.574219 L 149.199219 139.558594 C 152.363281 134.046875 158.234375 130.648438 164.589844 130.648438 Z M 201.433594 142.121094 C 207.792969 142.121094 213.664062 145.523438 216.828125 151.039062 L 232.046875 177.582031 C 235.179688 183.046875 235.179688 189.761719 232.046875 195.226562 L 216.828125 221.769531 C 213.664062 227.285156 207.792969 230.6875 201.433594 230.6875 L 171.214844 230.6875 C 164.855469 230.6875 158.980469 227.285156 155.816406 221.769531 L 140.597656 195.226562 C 137.464844 189.761719 137.464844 183.046875 140.597656 177.582031 L 155.816406 151.039062 C 158.980469 145.523438 164.855469 142.121094 171.214844 142.121094 Z M 194.292969 154.671875 L 178.355469 154.671875 C 172 154.671875 166.132812 158.066406 162.96875 163.574219 L 154.925781 177.566406 C 151.78125 183.039062 151.78125 189.769531 154.925781 195.242188 L 162.96875 209.234375 C 166.132812 214.742188 172 218.136719 178.355469 218.136719 L 194.292969 218.136719 C 200.644531 218.136719 206.515625 214.742188 209.679688 209.234375 L 217.722656 195.242188 C 220.867188 189.769531 220.867188 183.039062 217.722656 177.566406 L 209.679688 163.574219 C 206.515625 158.066406 200.644531 154.671875 194.292969 154.671875 Z M 187.414062 166.683594 C 193.765625 166.683594 199.628906 170.074219 202.796875 175.574219 L 203.9375 177.554688 C 207.089844 183.035156 207.089844 189.777344 203.9375 195.253906 L 202.796875 197.234375 C 199.628906 202.734375 193.765625 206.125 187.414062 206.125 L 185.230469 206.125 C 178.882812 206.125 173.015625 202.734375 169.847656 197.234375 L 168.710938 195.253906 C 165.554688 189.777344 165.554688 183.035156 168.710938 177.554688 L 169.847656 175.574219 C 173.015625 170.074219 178.882812 166.683594 185.230469 166.683594 Z M 186.324219 178.515625 C 183.5 178.515625 180.894531 180.019531 179.484375 182.460938 C 178.074219 184.902344 178.074219 187.910156 179.484375 190.347656 C 180.894531 192.789062 183.5 194.292969 186.320312 194.292969 C 189.144531 194.292969 191.75 192.789062 193.164062 190.347656 C 194.574219 187.910156 194.574219 184.902344 193.164062 182.460938 C 191.75 180.019531 189.144531 178.515625 186.324219 178.515625 Z M 122.304688 186.40625 L 136.511719 186.40625 " fill-opacity="1" fill-rule="nonzero"/></svg>