<svg xmlns="http://www.w3.org/2000/svg" xmlns:xlink="http://www.w3.org/1999/xlink" width="500" zoomAndPan="magnify" viewBox="0 0 375 374.999991" height="500" preserveAspectRatio="xMidYMid meet" version="1.0"><defs><clipPath id="2c4d47d6c2"><path d="M 17.492188 38 L 357.242188 38 L 357.242188 336 L 17.492188 336 Z M 17.492188 38 " clip-rule="nonzero"/></clipPath></defs><path fill="#ffffff" d="M 187.367188 156.242188 C 170.578125 156.242188 156.972656 169.847656 156.972656 186.632812 C 156.972656 203.417969 170.578125 217.023438 187.367188 217.023438 C 204.15625 217.023438 217.761719 203.417969 217.761719 186.632812 C 217.761719 169.847656 204.15625 156.242188 187.367188 156.242188 Z M 187.367188 156.242188 " fill-opacity="1" fill-rule="nonzero"/><g clip-path="url(#2c4d47d6c2)"><path fill="#ffffff" d="M 81.394531 240.445312 C 84.378906 241.4375 87.367188 242.441406 90.425781 243.304688 C 89.433594 247.285156 88.570312 251.203125 87.761719 255.253906 C 80.796875 292.082031 86.234375 321.269531 103.617188 331.289062 C 121.539062 341.636719 151.664062 331.019531 180.996094 305.34375 C 183.316406 303.292969 185.640625 301.167969 187.960938 298.902344 C 190.878906 301.761719 193.933594 304.480469 196.980469 307.128906 C 225.375 331.542969 253.449219 341.421875 270.773438 331.417969 C 288.695312 321.070312 294.53125 289.691406 286.96875 251.472656 C 286.375 248.558594 285.710938 245.570312 284.972656 242.515625 C 287.097656 241.917969 289.148438 241.253906 291.214844 240.589844 C 329.507812 227.921875 357.242188 207.410156 357.242188 186.378906 C 357.242188 166.277344 331.09375 146.773438 294.996094 134.363281 L 294.996094 134.347656 C 291.414062 133.160156 287.832031 132.027344 284.25 130.964844 C 284.847656 128.515625 285.382812 126.054688 285.910156 123.605469 C 294.078125 84.058594 288.695312 52.296875 270.578125 41.808594 C 253.121094 31.785156 224.652344 42.203125 195.859375 67.285156 C 193 69.734375 190.226562 72.324219 187.566406 74.914062 C 185.765625 73.1875 183.914062 71.460938 182.058594 69.804688 C 151.863281 42.996094 121.609375 31.714844 103.492188 42.273438 C 86.105469 52.367188 80.925781 82.289062 88.230469 119.683594 C 88.964844 123.40625 89.757812 127.042969 90.679688 130.765625 C 86.433594 131.957031 82.257812 133.285156 78.335938 134.6875 C 42.902344 146.957031 17.492188 166.335938 17.492188 186.378906 C 17.492188 207.085938 44.558594 227.835938 81.394531 240.445312 Z M 171.640625 294.503906 C 160.695312 304.523438 148.011719 312.476562 134.210938 317.925781 C 126.847656 321.4375 118.355469 321.777344 110.78125 318.789062 C 100.234375 312.691406 95.847656 289.265625 101.820312 257.742188 C 102.554688 254.035156 103.347656 250.3125 104.269531 246.660156 C 119.132812 249.84375 134.125 252.039062 149.328125 253.15625 C 158.089844 265.570312 167.703125 277.445312 177.996094 288.585938 C 175.871094 290.636719 173.75 292.632812 171.625 294.488281 Z M 255.910156 169.917969 C 252.796875 164.070312 249.613281 158.238281 246.285156 152.535156 C 243.027344 146.902344 239.644531 141.324219 236.136719 135.820312 C 246.824219 137.148438 257.042969 138.933594 266.597656 141.128906 C 263.542969 150.949219 259.960938 160.503906 255.910156 169.917969 Z M 256.039062 202.953125 C 260.285156 212.578125 264.007812 222.328125 267.25 232.351562 C 256.957031 234.671875 246.554688 236.46875 236.0625 237.660156 C 239.644531 232.082031 243.027344 226.378906 246.355469 220.671875 C 249.738281 214.828125 252.925781 208.925781 256.039062 202.953125 Z M 248.367188 186.449219 C 243.921875 195.605469 239.136719 204.621094 234.039062 213.511719 C 229 222.328125 223.621094 230.894531 217.988281 239.386719 C 208.105469 240.121094 197.8125 240.445312 187.394531 240.445312 C 176.976562 240.445312 166.898438 240.121094 157.144531 239.511719 C 151.367188 231.089844 145.929688 222.457031 140.820312 213.640625 C 135.710938 204.820312 130.996094 195.863281 126.550781 186.703125 L 126.523438 186.703125 C 130.898438 177.546875 135.683594 168.585938 140.722656 159.769531 C 145.761719 150.949219 151.210938 142.386719 156.917969 133.964844 C 166.867188 133.230469 177.019531 132.832031 187.378906 132.832031 C 197.742188 132.832031 207.949219 133.230469 217.84375 133.964844 C 223.480469 142.332031 228.859375 150.878906 233.96875 159.640625 C 239.078125 168.402344 243.851562 177.363281 248.367188 186.449219 Z M 128.363281 152.664062 C 125.105469 158.296875 121.921875 164.058594 118.933594 169.902344 C 114.757812 160.023438 111.234375 150.339844 108.316406 140.984375 C 117.875 138.863281 128.023438 137.136719 138.570312 135.804688 C 135.074219 141.3125 131.621094 146.945312 128.363281 152.664062 Z M 118.949219 203.476562 C 122.007812 209.320312 125.121094 215.097656 128.433594 220.800781 C 131.816406 226.574219 135.273438 232.351562 138.925781 237.984375 C 128.574219 236.851562 118.285156 235.195312 108.132812 233.003906 C 111.050781 223.449219 114.703125 213.570312 118.949219 203.476562 Z M 187.90625 278.367188 C 181.136719 271.078125 174.371094 262.996094 167.800781 254.289062 C 174.171875 254.558594 180.742188 254.6875 187.378906 254.6875 C 194.21875 254.6875 200.914062 254.558594 207.554688 254.21875 C 201.453125 262.640625 194.882812 270.679688 187.90625 278.367188 Z M 274.640625 298.296875 C 274.03125 306.378906 270.054688 313.9375 263.683594 319.046875 C 253.136719 325.144531 230.640625 317.191406 206.351562 296.355469 C 203.5625 293.964844 200.773438 291.375 197.925781 288.726562 C 208.078125 277.515625 217.433594 265.640625 225.929688 253.171875 C 241.117188 251.914062 256.25 249.589844 271.1875 246.207031 C 271.851562 248.925781 272.445312 251.644531 272.984375 254.304688 C 276.238281 268.640625 276.761719 283.5625 274.640625 298.296875 Z M 280.402344 144.636719 C 283.855469 145.628906 287.167969 146.691406 290.351562 147.75 C 321.269531 158.367188 342.972656 174.164062 342.972656 186.238281 C 342.972656 199.246094 319.8125 216.03125 286.699219 226.972656 C 284.847656 227.566406 282.992188 228.160156 281.066406 228.699219 C 276.421875 214.234375 270.71875 200.109375 264.148438 186.363281 C 270.519531 172.832031 275.898438 158.890625 280.402344 144.636719 Z M 205.203125 78.027344 C 229.90625 56.542969 252.925781 48.121094 263.414062 54.148438 C 274.625 60.589844 278.941406 86.589844 271.90625 120.757812 C 271.441406 123.011719 270.972656 125.203125 270.378906 127.398438 C 255.640625 124.085938 240.722656 121.695312 225.714844 120.363281 C 217.09375 108.007812 207.667969 96.203125 197.445312 85.117188 C 200.035156 82.671875 202.554688 80.347656 205.203125 78.027344 Z M 187.507812 95.28125 C 194.472656 102.839844 201.042969 110.792969 207.144531 119.019531 C 194.003906 118.425781 180.796875 118.425781 167.660156 119.019531 C 174.160156 110.46875 180.867188 102.515625 187.507812 95.28125 Z M 110.527344 54.617188 C 121.679688 48.121094 146.425781 57.40625 172.503906 80.492188 C 174.160156 81.949219 175.816406 83.546875 177.542969 85.132812 C 167.25 96.203125 157.765625 108.007812 149.074219 120.347656 C 134.082031 121.679688 119.21875 124 104.480469 127.257812 C 103.617188 123.875 102.894531 120.417969 102.160156 116.964844 C 95.917969 84.851562 100.035156 60.644531 110.527344 54.617188 Z M 82.992188 148.148438 C 86.773438 146.816406 90.621094 145.628906 94.472656 144.496094 C 98.988281 158.890625 104.425781 173.03125 110.726562 186.691406 C 104.355469 200.5625 98.847656 214.882812 94.273438 229.476562 L 94.261719 229.492188 C 91.472656 228.699219 88.753906 227.835938 86.035156 226.902344 C 71.90625 222.457031 55.839844 215.421875 44.234375 206.207031 C 37.535156 201.566406 33.019531 194.402344 31.761719 186.363281 C 31.761719 174.21875 52.726562 158.691406 82.992188 148.148438 Z M 82.992188 148.148438 " fill-opacity="1" fill-rule="nonzero"/></g></svg>