<svg xmlns="http://www.w3.org/2000/svg" xmlns:xlink="http://www.w3.org/1999/xlink" width="500" zoomAndPan="magnify" viewBox="0 0 375 374.999991" height="500" preserveAspectRatio="xMidYMid meet" version="1.0"><defs><clipPath id="cb219830c5"><path d="M 31.945312 31.945312 L 343.195312 31.945312 L 343.195312 343.195312 L 31.945312 343.195312 Z M 31.945312 31.945312 " clip-rule="nonzero"/></clipPath></defs><g clip-path="url(#cb219830c5)"><path fill="#ffffff" d="M 31.945312 66.527344 L 31.945312 308.609375 C 31.945312 327.71875 47.421875 343.195312 66.527344 343.195312 L 308.609375 343.195312 C 327.71875 343.195312 343.195312 327.71875 343.195312 308.609375 L 343.195312 66.527344 C 343.195312 47.421875 327.71875 31.945312 308.609375 31.945312 L 66.527344 31.945312 C 47.421875 31.945312 31.945312 47.421875 31.945312 66.527344 Z M 216.378906 195.367188 L 179.753906 195.367188 L 179.753906 308.609375 L 150.238281 308.609375 L 150.238281 195.367188 L 114.375 195.367188 L 114.375 170.277344 L 216.378906 170.277344 Z M 222.117188 302.144531 L 222.117188 271.867188 C 222.117188 271.867188 238.648438 284.332031 258.5 284.332031 C 278.351562 284.332031 277.574219 271.363281 277.574219 269.582031 C 277.574219 250.753906 221.355469 250.753906 221.355469 209.046875 C 221.355469 152.3125 303.269531 174.703125 303.269531 174.703125 L 302.246094 201.664062 C 302.246094 201.664062 288.519531 192.496094 272.992188 192.496094 C 257.480469 192.496094 251.878906 199.882812 251.878906 207.765625 C 251.878906 228.117188 308.609375 226.078125 308.609375 267.042969 C 308.609375 330.121094 222.117188 302.144531 222.117188 302.144531 Z M 222.117188 302.144531 " fill-opacity="1" fill-rule="nonzero"/></g></svg>