<svg xmlns="http://www.w3.org/2000/svg" xmlns:xlink="http://www.w3.org/1999/xlink" width="500" zoomAndPan="magnify" viewBox="0 0 375 374.999991" height="500" preserveAspectRatio="xMidYMid meet" version="1.0"><defs><clipPath id="ffb1e16158"><path d="M 18.75 18.75 L 356.25 18.75 L 356.25 356.25 L 18.75 356.25 Z M 18.75 18.75 " clip-rule="nonzero"/></clipPath></defs><g clip-path="url(#ffb1e16158)"><path fill="#ffffff" d="M 187.578125 18.75 C 184.816406 18.75 182.054688 18.820312 179.296875 18.957031 C 176.539062 19.09375 173.785156 19.296875 171.035156 19.566406 C 168.289062 19.839844 165.546875 20.179688 162.816406 20.585938 C 160.082031 20.992188 157.363281 21.464844 154.652344 22.003906 C 151.945312 22.542969 149.25 23.148438 146.574219 23.820312 C 143.894531 24.492188 141.234375 25.230469 138.589844 26.035156 C 135.949219 26.835938 133.324219 27.703125 130.726562 28.632812 C 128.125 29.566406 125.550781 30.5625 123 31.617188 C 120.445312 32.675781 117.921875 33.796875 115.425781 34.976562 C 112.929688 36.160156 110.464844 37.402344 108.027344 38.703125 C 105.59375 40.007812 103.191406 41.367188 100.824219 42.789062 C 98.453125 44.210938 96.121094 45.6875 93.824219 47.222656 C 91.53125 48.757812 89.273438 50.351562 87.054688 51.996094 C 84.835938 53.640625 82.660156 55.339844 80.527344 57.09375 C 78.390625 58.847656 76.300781 60.652344 74.257812 62.507812 C 72.210938 64.363281 70.210938 66.265625 68.257812 68.21875 C 66.304688 70.175781 64.402344 72.175781 62.550781 74.222656 C 60.695312 76.269531 58.890625 78.359375 57.140625 80.496094 C 55.390625 82.632812 53.691406 84.808594 52.046875 87.027344 C 50.402344 89.246094 48.8125 91.503906 47.277344 93.800781 C 45.746094 96.097656 44.269531 98.429688 42.851562 100.800781 C 41.429688 103.171875 40.070312 105.574219 38.769531 108.007812 C 37.46875 110.445312 36.226562 112.914062 35.046875 115.410156 C 33.867188 117.90625 32.75 120.429688 31.691406 122.984375 C 30.636719 125.535156 29.644531 128.113281 28.714844 130.710938 C 27.785156 133.3125 26.917969 135.9375 26.117188 138.578125 C 25.316406 141.222656 24.582031 143.882812 23.910156 146.5625 C 23.242188 149.242188 22.636719 151.9375 22.097656 154.644531 C 21.5625 157.355469 21.089844 160.074219 20.683594 162.808594 C 20.28125 165.539062 19.945312 168.28125 19.675781 171.027344 C 19.402344 173.777344 19.203125 176.53125 19.066406 179.289062 C 18.933594 182.050781 18.867188 184.808594 18.867188 187.570312 C 18.867188 190.332031 18.9375 193.09375 19.074219 195.851562 C 19.207031 198.609375 19.414062 201.363281 19.683594 204.113281 C 19.957031 206.863281 20.292969 209.601562 20.699219 212.332031 C 21.105469 215.066406 21.578125 217.785156 22.121094 220.496094 C 22.660156 223.203125 23.265625 225.898438 23.9375 228.578125 C 24.609375 231.253906 25.347656 233.917969 26.148438 236.558594 C 26.949219 239.203125 27.816406 241.824219 28.75 244.421875 C 29.679688 247.023438 30.675781 249.597656 31.734375 252.152344 C 32.789062 254.703125 33.910156 257.226562 35.089844 259.722656 C 36.273438 262.21875 37.515625 264.683594 38.816406 267.121094 C 40.121094 269.554688 41.480469 271.957031 42.902344 274.328125 C 44.324219 276.695312 45.800781 279.027344 47.335938 281.324219 C 48.871094 283.621094 50.460938 285.875 52.109375 288.09375 C 53.753906 290.3125 55.453125 292.488281 57.207031 294.625 C 58.960938 296.757812 60.761719 298.847656 62.617188 300.894531 C 64.472656 302.941406 66.378906 304.9375 68.332031 306.890625 C 70.285156 308.84375 72.285156 310.746094 74.332031 312.601562 C 76.378906 314.457031 78.472656 316.257812 80.605469 318.011719 C 82.742188 319.761719 84.917969 321.460938 87.136719 323.105469 C 89.359375 324.75 91.617188 326.339844 93.914062 327.871094 C 96.210938 329.40625 98.542969 330.882812 100.910156 332.300781 C 103.28125 333.722656 105.683594 335.082031 108.121094 336.382812 C 110.554688 337.683594 113.023438 338.925781 115.519531 340.105469 C 118.015625 341.285156 120.542969 342.402344 123.09375 343.460938 C 125.644531 344.515625 128.222656 345.507812 130.824219 346.4375 C 133.425781 347.367188 136.046875 348.234375 138.6875 349.035156 C 141.332031 349.835938 143.992188 350.570312 146.671875 351.242188 C 149.351562 351.914062 152.046875 352.515625 154.753906 353.054688 C 157.464844 353.59375 160.183594 354.0625 162.917969 354.46875 C 165.648438 354.875 168.390625 355.210938 171.140625 355.480469 C 173.886719 355.75 176.640625 355.953125 179.398438 356.085938 C 182.160156 356.222656 184.917969 356.289062 187.679688 356.289062 C 190.441406 356.289062 193.203125 356.21875 195.960938 356.082031 C 198.722656 355.945312 201.472656 355.742188 204.222656 355.472656 C 206.972656 355.199219 209.710938 354.863281 212.445312 354.457031 C 215.175781 354.050781 217.894531 353.578125 220.605469 353.035156 C 223.3125 352.496094 226.007812 351.890625 228.6875 351.21875 C 231.367188 350.546875 234.027344 349.8125 236.667969 349.007812 C 239.3125 348.207031 241.933594 347.339844 244.535156 346.410156 C 247.132812 345.476562 249.710938 344.484375 252.261719 343.425781 C 254.8125 342.367188 257.335938 341.246094 259.832031 340.066406 C 262.328125 338.886719 264.796875 337.644531 267.230469 336.339844 C 269.667969 335.039062 272.070312 333.675781 274.4375 332.253906 C 276.804688 330.835938 279.140625 329.355469 281.433594 327.820312 C 283.730469 326.285156 285.988281 324.695312 288.207031 323.050781 C 290.425781 321.40625 292.601562 319.707031 294.734375 317.953125 C 296.871094 316.199219 298.960938 314.394531 301.003906 312.539062 C 303.050781 310.683594 305.050781 308.78125 307.003906 306.828125 C 308.957031 304.875 310.859375 302.875 312.714844 300.828125 C 314.566406 298.78125 316.371094 296.6875 318.121094 294.554688 C 319.875 292.417969 321.574219 290.242188 323.21875 288.023438 C 324.863281 285.804688 326.453125 283.546875 327.984375 281.25 C 329.519531 278.953125 330.996094 276.617188 332.414062 274.25 C 333.835938 271.878906 335.195312 269.476562 336.496094 267.039062 C 337.796875 264.605469 339.039062 262.136719 340.21875 259.640625 C 341.398438 257.144531 342.515625 254.621094 343.574219 252.066406 C 344.628906 249.515625 345.625 246.9375 346.554688 244.339844 C 347.484375 241.738281 348.347656 239.117188 349.148438 236.472656 C 349.949219 233.828125 350.6875 231.167969 351.355469 228.488281 C 352.027344 225.808594 352.632812 223.113281 353.171875 220.40625 C 353.707031 217.695312 354.179688 214.976562 354.585938 212.242188 C 354.988281 209.511719 355.328125 206.769531 355.597656 204.023438 C 355.867188 201.273438 356.070312 198.519531 356.203125 195.761719 C 356.339844 193.003906 356.40625 190.242188 356.40625 187.480469 C 356.398438 184.71875 356.328125 181.960938 356.183594 179.203125 C 356.042969 176.445312 355.835938 173.695312 355.558594 170.945312 C 355.285156 168.199219 354.941406 165.460938 354.53125 162.730469 C 354.121094 160 353.644531 157.28125 353.101562 154.574219 C 352.558594 151.867188 351.949219 149.175781 351.277344 146.5 C 350.601562 143.820312 349.863281 141.164062 349.054688 138.523438 C 348.25 135.882812 347.382812 133.261719 346.449219 130.664062 C 345.515625 128.066406 344.519531 125.492188 343.457031 122.941406 C 342.398438 120.390625 341.277344 117.871094 340.09375 115.375 C 338.910156 112.882812 337.667969 110.417969 336.363281 107.984375 C 335.0625 105.550781 333.699219 103.148438 332.277344 100.78125 C 330.855469 98.417969 329.378906 96.085938 327.839844 93.792969 C 326.304688 91.496094 324.714844 89.242188 323.070312 87.023438 C 321.421875 84.808594 319.722656 82.632812 317.972656 80.5 C 316.21875 78.367188 314.414062 76.277344 312.558594 74.234375 C 310.707031 72.1875 308.800781 70.1875 306.847656 68.238281 C 304.894531 66.285156 302.898438 64.382812 300.851562 62.53125 C 298.804688 60.675781 296.714844 58.875 294.582031 57.121094 C 292.445312 55.371094 290.269531 53.671875 288.050781 52.027344 C 285.835938 50.382812 283.578125 48.792969 281.285156 47.257812 C 278.988281 45.726562 276.65625 44.25 274.289062 42.828125 C 271.921875 41.410156 269.519531 40.046875 267.085938 38.746094 C 264.652344 37.441406 262.1875 36.199219 259.691406 35.019531 C 257.195312 33.835938 254.671875 32.71875 252.125 31.660156 C 249.574219 30.601562 247 29.605469 244.402344 28.675781 C 241.800781 27.742188 239.179688 26.875 236.539062 26.070312 C 233.898438 25.265625 231.238281 24.527344 228.5625 23.855469 C 225.882812 23.183594 223.191406 22.574219 220.484375 22.03125 C 217.777344 21.492188 215.058594 21.015625 212.328125 20.609375 C 209.597656 20.199219 206.859375 19.859375 204.113281 19.585938 C 201.363281 19.3125 198.613281 19.105469 195.855469 18.964844 C 193.097656 18.824219 190.339844 18.753906 187.578125 18.75 Z M 234.183594 329.878906 C 226.863281 331.375 224.164062 326.871094 224.164062 322.984375 C 224.164062 318.035156 224.375 302.304688 224.375 282.710938 C 224.375 269.117188 219.753906 260.222656 214.472656 255.699219 C 247 252.027344 281.234375 239.660156 281.234375 183.441406 C 281.289062 179.839844 281.003906 176.261719 280.375 172.714844 C 279.746094 169.164062 278.785156 165.707031 277.496094 162.34375 C 276.203125 158.980469 274.605469 155.765625 272.703125 152.707031 C 270.796875 149.648438 268.617188 146.800781 266.164062 144.15625 C 267.660156 140.488281 272.828125 125.515625 264.75 105.320312 C 264.75 105.320312 252.476562 101.320312 224.492188 120.273438 C 218.53125 118.667969 212.492188 117.460938 206.375 116.652344 C 200.253906 115.839844 194.109375 115.4375 187.9375 115.4375 C 181.765625 115.4375 175.617188 115.839844 169.5 116.652344 C 163.378906 117.460938 157.339844 118.667969 151.378906 120.273438 C 123.398438 101.550781 111.105469 105.320312 111.105469 105.320312 C 103.144531 125.4375 108.210938 140.410156 109.707031 144.15625 C 107.273438 146.808594 105.109375 149.664062 103.21875 152.726562 C 101.328125 155.789062 99.742188 159 98.460938 162.363281 C 97.183594 165.726562 96.230469 169.183594 95.605469 172.726562 C 94.984375 176.269531 94.699219 179.84375 94.753906 183.441406 C 94.753906 239.425781 128.777344 252.027344 161.285156 255.699219 C 157.089844 259.351562 153.207031 265.699219 151.925781 275.292969 C 143.515625 279.058594 122.523438 285.292969 109.398438 263.234375 C 106.601562 258.804688 98.40625 248.046875 86.890625 248.164062 C 74.617188 248.378906 81.9375 255.15625 87.007812 257.875 C 93.242188 261.425781 100.347656 274.339844 102.078125 278.535156 C 104.96875 286.828125 114.445312 302.539062 151.167969 295.761719 C 151.167969 308.03125 151.378906 319.566406 151.378906 322.945312 C 151.378906 326.832031 148.699219 331.121094 141.359375 329.839844 C 138.648438 328.933594 135.964844 327.945312 133.3125 326.878906 C 130.65625 325.8125 128.035156 324.667969 125.449219 323.449219 C 122.863281 322.226562 120.3125 320.933594 117.800781 319.5625 C 115.289062 318.195312 112.820312 316.75 110.394531 315.238281 C 107.96875 313.722656 105.589844 312.136719 103.253906 310.484375 C 100.921875 308.828125 98.640625 307.105469 96.40625 305.316406 C 94.175781 303.527344 91.996094 301.675781 89.875 299.757812 C 87.75 297.84375 85.683594 295.867188 83.679688 293.828125 C 81.671875 291.789062 79.726562 289.695312 77.839844 287.542969 C 75.957031 285.390625 74.136719 283.183594 72.382812 280.925781 C 70.628906 278.667969 68.941406 276.359375 67.324219 274 C 65.703125 271.640625 64.15625 269.238281 62.675781 266.789062 C 61.199219 264.339844 59.792969 261.851562 58.460938 259.320312 C 57.132812 256.789062 55.875 254.21875 54.695312 251.613281 C 53.511719 249.007812 52.410156 246.371094 51.382812 243.699219 C 50.359375 241.03125 49.410156 238.332031 48.542969 235.605469 C 47.675781 232.882812 46.890625 230.132812 46.183594 227.359375 C 45.476562 224.589844 44.855469 221.796875 44.3125 218.988281 C 43.769531 216.179688 43.308594 213.359375 42.933594 210.523438 C 42.558594 207.6875 42.265625 204.84375 42.054688 201.992188 C 41.847656 199.136719 41.722656 196.28125 41.679688 193.421875 C 41.636719 190.5625 41.679688 187.703125 41.808594 184.84375 C 41.933594 181.988281 42.144531 179.136719 42.4375 176.289062 C 42.730469 173.445312 43.109375 170.609375 43.566406 167.789062 C 44.027344 164.964844 44.570312 162.15625 45.195312 159.367188 C 45.820312 156.574219 46.527344 153.804688 47.316406 151.054688 C 48.105469 148.304688 48.972656 145.582031 49.917969 142.882812 C 50.867188 140.183594 51.894531 137.515625 53 134.875 C 54.101562 132.238281 55.285156 129.632812 56.542969 127.066406 C 57.800781 124.496094 59.132812 121.964844 60.539062 119.472656 C 61.945312 116.984375 63.421875 114.535156 64.972656 112.132812 C 66.523438 109.726562 68.140625 107.371094 69.828125 105.0625 C 71.515625 102.753906 73.273438 100.496094 75.09375 98.289062 C 76.914062 96.082031 78.796875 93.933594 80.746094 91.835938 C 82.691406 89.742188 84.699219 87.707031 86.765625 85.730469 C 88.832031 83.75 90.957031 81.835938 93.136719 79.984375 C 95.3125 78.128906 97.546875 76.34375 99.832031 74.621094 C 102.113281 72.898438 104.449219 71.246094 106.828125 69.664062 C 109.210938 68.078125 111.636719 66.5625 114.105469 65.121094 C 116.578125 63.679688 119.085938 62.3125 121.636719 61.015625 C 124.1875 59.722656 126.773438 58.503906 129.398438 57.359375 C 132.019531 56.21875 134.671875 55.152344 137.355469 54.164062 C 140.042969 53.179688 142.753906 52.269531 145.492188 51.445312 C 148.230469 50.617188 150.988281 49.871094 153.769531 49.203125 C 156.554688 48.539062 159.351562 47.953125 162.167969 47.453125 C 164.984375 46.953125 167.8125 46.535156 170.652344 46.199219 C 173.496094 45.863281 176.34375 45.613281 179.199219 45.445312 C 182.054688 45.277344 184.910156 45.191406 187.773438 45.191406 C 190.632812 45.191406 193.488281 45.277344 196.34375 45.445312 C 199.199219 45.613281 202.050781 45.863281 204.890625 46.199219 C 207.730469 46.535156 210.558594 46.953125 213.375 47.453125 C 216.191406 47.953125 218.988281 48.539062 221.773438 49.203125 C 224.554688 49.871094 227.3125 50.617188 230.050781 51.445312 C 232.789062 52.269531 235.5 53.179688 238.1875 54.164062 C 240.871094 55.152344 243.523438 56.21875 246.148438 57.359375 C 248.769531 58.503906 251.355469 59.722656 253.90625 61.015625 C 256.457031 62.3125 258.96875 63.679688 261.4375 65.121094 C 263.90625 66.5625 266.332031 68.078125 268.714844 69.664062 C 271.09375 71.246094 273.429688 72.898438 275.710938 74.621094 C 277.996094 76.34375 280.230469 78.128906 282.40625 79.984375 C 284.585938 81.835938 286.710938 83.75 288.777344 85.730469 C 290.84375 87.707031 292.851562 89.742188 294.796875 91.835938 C 296.746094 93.933594 298.628906 96.082031 300.449219 98.289062 C 302.269531 100.496094 304.027344 102.753906 305.714844 105.0625 C 307.402344 107.371094 309.023438 109.726562 310.570312 112.132812 C 312.121094 114.535156 313.597656 116.984375 315.003906 119.472656 C 316.410156 121.964844 317.742188 124.496094 319 127.066406 C 320.257812 129.632812 321.441406 132.238281 322.542969 134.875 C 323.648438 137.515625 324.675781 140.183594 325.625 142.882812 C 326.570312 145.582031 327.4375 148.304688 328.226562 151.054688 C 329.015625 153.804688 329.722656 156.574219 330.347656 159.367188 C 330.972656 162.15625 331.515625 164.964844 331.976562 167.789062 C 332.433594 170.609375 332.8125 173.445312 333.105469 176.289062 C 333.398438 179.136719 333.609375 181.988281 333.738281 184.84375 C 333.863281 187.703125 333.90625 190.5625 333.863281 193.421875 C 333.820312 196.28125 333.695312 199.136719 333.488281 201.992188 C 333.277344 204.84375 332.984375 207.6875 332.609375 210.523438 C 332.234375 213.359375 331.773438 216.179688 331.230469 218.988281 C 330.6875 221.796875 330.066406 224.589844 329.359375 227.359375 C 328.652344 230.132812 327.867188 232.882812 327 235.605469 C 326.132812 238.332031 325.183594 241.03125 324.160156 243.699219 C 323.132812 246.371094 322.03125 249.007812 320.847656 251.613281 C 319.667969 254.21875 318.414062 256.789062 317.082031 259.320312 C 315.75 261.851562 314.34375 264.339844 312.867188 266.789062 C 311.386719 269.238281 309.839844 271.640625 308.222656 274 C 306.601562 276.359375 304.914062 278.667969 303.160156 280.925781 C 301.40625 283.183594 299.585938 285.390625 297.703125 287.542969 C 295.816406 289.695312 293.871094 291.789062 291.863281 293.828125 C 289.859375 295.867188 287.792969 297.84375 285.667969 299.757812 C 283.546875 301.675781 281.367188 303.527344 279.136719 305.316406 C 276.902344 307.105469 274.621094 308.828125 272.289062 310.484375 C 269.953125 312.136719 267.574219 313.722656 265.148438 315.238281 C 262.722656 316.75 260.253906 318.195312 257.742188 319.5625 C 255.230469 320.933594 252.683594 322.226562 250.09375 323.449219 C 247.507812 324.667969 244.886719 325.8125 242.234375 326.878906 C 239.578125 327.945312 236.894531 328.933594 234.183594 329.839844 Z M 234.183594 329.878906 " fill-opacity="1" fill-rule="evenodd"/></g></svg>