<svg xmlns="http://www.w3.org/2000/svg" xmlns:xlink="http://www.w3.org/1999/xlink" width="500" zoomAndPan="magnify" viewBox="0 0 375 374.999991" height="500" preserveAspectRatio="xMidYMid meet" version="1.0"><defs><clipPath id="d2916eac82"><path d="M 31 38 L 341 38 L 341 356.144531 L 31 356.144531 Z M 31 38 " clip-rule="nonzero"/></clipPath></defs><g clip-path="url(#d2916eac82)"><path fill="#000000" d="M 339.503906 228.648438 C 337.640625 223.03125 332.78125 219.113281 326.496094 218.171875 C 323.53125 217.738281 320.132812 217.917969 316.121094 218.753906 C 309.117188 220.191406 303.917969 220.746094 300.121094 220.855469 C 314.4375 196.699219 326.082031 169.160156 332.78125 143.238281 C 343.617188 101.320312 337.824219 82.222656 331.050781 73.585938 C 313.15625 50.726562 287.027344 38.441406 255.519531 38.066406 C 238.710938 37.859375 223.949219 41.175781 216.257812 43.5625 C 209.085938 42.300781 201.371094 41.59375 193.296875 41.460938 C 178.132812 41.222656 164.734375 44.523438 153.296875 51.3125 C 146.957031 49.167969 136.789062 46.152344 125.046875 44.226562 C 97.429688 39.691406 75.167969 43.222656 58.886719 54.71875 C 39.167969 68.636719 30.03125 92.820312 31.71875 126.59375 C 32.257812 137.316406 38.257812 169.945312 47.710938 200.878906 C 53.140625 218.667969 58.933594 233.433594 64.925781 244.78125 C 73.421875 260.875 82.511719 270.351562 92.71875 273.757812 C 98.4375 275.65625 108.832031 276.996094 119.765625 267.898438 C 121.148438 269.5625 123 271.230469 125.453125 272.777344 C 128.566406 274.75 132.378906 276.355469 136.183594 277.296875 C 149.894531 280.730469 162.742188 279.871094 173.695312 275.074219 C 173.769531 277.019531 173.816406 278.882812 173.863281 280.488281 C 173.9375 283.097656 174.011719 285.648438 174.105469 288.039062 C 174.746094 304.195312 175.847656 316.761719 179.113281 325.5625 C 179.292969 326.042969 179.535156 326.78125 179.789062 327.554688 C 181.410156 332.53125 184.128906 340.871094 191.046875 347.394531 C 198.21875 354.152344 206.886719 356.21875 214.820312 356.21875 C 218.796875 356.21875 222.59375 355.699219 225.929688 354.984375 C 237.804688 352.445312 251.285156 348.566406 261.042969 334.683594 C 270.269531 321.5625 274.742188 301.804688 275.554688 270.652344 C 275.664062 269.769531 275.757812 268.9375 275.855469 268.125 C 275.917969 267.59375 275.976562 267.039062 276.050781 266.484375 L 278.226562 266.675781 L 278.78125 266.710938 C 290.875 267.269531 305.660156 264.707031 314.742188 260.488281 C 321.921875 257.15625 344.921875 245.023438 339.503906 228.648438 " fill-opacity="1" fill-rule="nonzero"/></g><path fill="#ffffff" d="M 318.828125 231.828125 C 282.867188 239.246094 280.390625 227.078125 280.390625 227.078125 C 318.355469 170.765625 334.234375 99.304688 320.53125 81.820312 C 283.171875 34.101562 218.480469 56.667969 217.40625 57.253906 L 217.054688 57.316406 C 209.957031 55.839844 202 54.964844 193.066406 54.816406 C 176.792969 54.550781 164.457031 59.082031 155.085938 66.179688 C 155.085938 66.179688 39.699219 18.671875 45.066406 125.925781 C 46.207031 148.742188 77.789062 298.566406 115.460938 253.3125 C 129.230469 236.769531 142.53125 222.777344 142.53125 222.777344 C 149.140625 227.164062 157.046875 229.398438 165.339844 228.601562 L 165.980469 228.046875 C 165.789062 230.101562 165.871094 232.117188 166.246094 234.5 C 156.539062 245.324219 159.390625 247.234375 139.992188 251.222656 C 120.363281 255.269531 131.894531 262.460938 139.421875 264.34375 C 148.550781 266.628906 169.667969 269.855469 183.9375 249.894531 L 183.367188 252.175781 C 187.164062 255.222656 189.835938 271.96875 189.390625 287.160156 C 188.941406 302.347656 188.640625 312.777344 191.640625 320.921875 C 194.636719 329.066406 197.625 347.386719 223.125 341.921875 C 244.429688 337.367188 255.480469 325.539062 257.015625 305.804688 C 258.105469 291.789062 260.570312 293.855469 260.730469 281.324219 L 262.699219 275.378906 C 264.984375 256.371094 263.0625 250.230469 276.195312 253.082031 L 279.386719 253.375 C 289.046875 253.808594 301.695312 251.816406 309.117188 248.371094 C 325.105469 240.953125 334.582031 228.578125 318.816406 231.828125 L 318.828125 231.828125 " fill-opacity="1" fill-rule="nonzero"/><path fill="#aaaaaa" d="M 161.847656 136.128906 C 158.605469 135.679688 155.667969 136.09375 154.179688 137.21875 C 153.347656 137.851562 153.09375 138.582031 153.019531 139.085938 C 152.839844 140.421875 153.769531 141.898438 154.335938 142.660156 C 155.96875 144.816406 158.351562 146.296875 160.699219 146.625 C 161.046875 146.671875 161.386719 146.695312 161.714844 146.695312 C 165.644531 146.695312 169.210938 143.640625 169.523438 141.386719 C 169.921875 138.5625 165.8125 136.683594 161.847656 136.128906 " fill-opacity="1" fill-rule="nonzero"/><path fill="#aaaaaa" d="M 269.191406 136.21875 C 268.878906 134.007812 264.949219 133.375 261.199219 133.894531 C 257.476562 134.414062 253.847656 136.097656 254.152344 138.316406 C 254.394531 140.039062 257.511719 142.984375 261.199219 142.984375 C 261.515625 142.984375 261.828125 142.964844 262.144531 142.917969 C 264.597656 142.578125 266.414062 141.015625 267.269531 140.117188 C 268.578125 138.742188 269.328125 137.214844 269.191406 136.21875 " fill-opacity="1" fill-rule="nonzero"/><path fill="#aaaaaa" d="M 330.785156 230.992188 C 329.421875 226.847656 325.007812 225.507812 317.667969 227.03125 C 295.902344 231.511719 288.105469 228.40625 285.539062 226.523438 C 302.46875 200.757812 316.386719 169.621094 323.894531 140.558594 C 327.460938 126.796875 329.421875 114.011719 329.578125 103.597656 C 329.757812 92.160156 327.8125 83.757812 323.785156 78.625 C 307.582031 57.929688 283.800781 46.832031 255.011719 46.527344 C 235.214844 46.304688 218.496094 51.363281 215.253906 52.789062 C 208.433594 51.09375 200.984375 50.050781 192.882812 49.917969 C 178.023438 49.675781 165.183594 53.230469 154.554688 60.476562 C 149.929688 58.761719 137.996094 54.664062 123.398438 52.316406 C 98.160156 48.253906 78.105469 51.332031 63.792969 61.464844 C 46.71875 73.554688 38.832031 95.167969 40.359375 125.699219 C 40.875 135.972656 46.730469 167.578125 55.972656 197.835938 C 68.140625 237.675781 81.363281 260.222656 95.28125 264.863281 C 96.910156 265.40625 98.789062 265.78125 100.859375 265.78125 C 105.933594 265.78125 112.15625 263.5 118.632812 255.714844 C 129.386719 242.785156 139.429688 231.949219 143.132812 228.007812 C 148.601562 230.945312 154.617188 232.589844 160.757812 232.746094 C 160.769531 232.914062 160.78125 233.070312 160.792969 233.226562 C 159.5625 234.691406 158.558594 235.972656 157.6875 237.070312 C 153.429688 242.472656 152.546875 243.597656 138.839844 246.410156 C 134.9375 247.222656 124.582031 249.347656 124.429688 256.609375 C 124.265625 264.539062 136.671875 267.859375 138.085938 268.210938 C 143.011719 269.445312 147.757812 270.058594 152.28125 270.058594 C 163.296875 270.058594 172.980469 266.445312 180.722656 259.449219 C 180.480469 287.703125 181.664062 315.554688 185.050781 324.039062 C 187.832031 330.984375 194.625 347.953125 216.089844 347.953125 C 219.230469 347.953125 222.703125 347.589844 226.511719 346.769531 C 248.902344 341.96875 258.625 332.085938 262.398438 310.273438 C 264.40625 298.625 267.863281 270.785156 269.484375 255.863281 C 272.917969 256.925781 277.332031 257.421875 282.105469 257.421875 C 292.058594 257.421875 303.542969 255.304688 310.738281 251.957031 C 318.839844 248.210938 333.433594 238.992188 330.785156 230.992188 Z M 277.464844 130.113281 C 277.378906 134.519531 276.773438 138.519531 276.132812 142.695312 C 275.445312 147.1875 274.730469 151.832031 274.550781 157.46875 C 274.367188 162.949219 275.058594 168.652344 275.722656 174.175781 C 277.050781 185.316406 278.429688 196.785156 273.109375 208.105469 C 272.277344 206.632812 271.480469 205.035156 270.753906 203.261719 C 270.089844 201.652344 268.648438 199.078125 266.667969 195.515625 C 258.925781 181.65625 240.816406 149.179688 250.089844 135.925781 C 252.847656 131.984375 259.859375 127.929688 277.464844 130.113281 Z M 256.121094 55.449219 C 281.925781 56.019531 302.324219 65.664062 316.773438 84.113281 C 327.847656 98.261719 315.648438 162.660156 280.328125 218.207031 C 279.980469 217.757812 279.628906 217.3125 279.253906 216.851562 C 279.109375 216.671875 278.964844 216.476562 278.804688 216.296875 C 287.933594 201.226562 286.15625 186.328125 284.5625 173.109375 C 283.910156 167.683594 283.292969 162.558594 283.449219 157.753906 C 283.617188 152.652344 284.296875 148.277344 284.9375 144.050781 C 285.746094 138.835938 286.554688 133.445312 286.339844 127.085938 C 286.507812 126.421875 286.570312 125.632812 286.484375 124.695312 C 285.902344 118.601562 278.9375 100.355469 264.742188 83.839844 C 256.980469 74.808594 245.664062 64.699219 230.199219 57.882812 C 236.847656 56.503906 245.941406 55.222656 256.121094 55.445312 Z M 111.777344 250.023438 C 104.640625 258.589844 99.714844 256.945312 98.09375 256.414062 C 87.539062 252.886719 75.292969 230.59375 64.492188 195.234375 C 55.148438 164.636719 49.6875 133.878906 49.253906 125.253906 C 47.890625 97.96875 54.507812 78.957031 68.925781 68.738281 C 92.386719 52.109375 130.960938 62.0625 146.460938 67.109375 C 146.238281 67.332031 146.007812 67.535156 145.785156 67.757812 C 120.351562 93.429688 120.953125 137.289062 121.015625 139.96875 C 121.015625 141.003906 121.101562 142.46875 121.21875 144.484375 C 121.65625 151.859375 122.472656 165.59375 120.296875 181.144531 C 118.273438 195.585938 122.730469 209.734375 132.523438 219.933594 C 133.535156 220.996094 134.59375 221.988281 135.6875 222.917969 C 131.328125 227.582031 121.859375 237.902344 111.777344 250.023438 Z M 138.957031 213.769531 C 131.066406 205.554688 127.480469 194.097656 129.121094 182.378906 C 131.417969 165.945312 130.570312 151.640625 130.117188 143.957031 C 130.050781 142.882812 129.996094 141.9375 129.960938 141.195312 C 133.679688 137.902344 150.898438 128.683594 163.171875 131.496094 C 168.78125 132.777344 172.191406 136.589844 173.617188 143.148438 C 180.957031 177.109375 174.585938 191.257812 169.472656 202.640625 C 168.40625 204.972656 167.414062 207.199219 166.558594 209.480469 L 165.902344 211.257812 C 164.222656 215.742188 162.675781 219.898438 161.707031 223.847656 C 153.316406 223.824219 145.160156 220.25 138.957031 213.769531 Z M 140.242188 259.582031 C 137.792969 258.964844 135.589844 257.902344 134.296875 257.019531 C 135.378906 256.511719 137.300781 255.824219 140.632812 255.132812 C 156.761719 251.824219 159.253906 249.480469 164.683594 242.578125 C 165.941406 240.996094 167.34375 239.195312 169.300781 237.019531 L 169.300781 237.007812 C 172.226562 233.746094 173.558594 234.300781 175.976562 235.304688 C 177.933594 236.113281 179.84375 238.566406 180.621094 241.273438 C 180.980469 242.542969 181.394531 244.972656 180.050781 246.855469 C 168.683594 262.746094 152.132812 262.554688 140.242188 259.582031 Z M 224.644531 338.066406 C 204.910156 342.28125 197.921875 332.226562 193.328125 320.726562 C 190.351562 313.304688 188.890625 279.820312 189.929688 242.84375 C 189.941406 242.363281 189.867188 241.878906 189.734375 241.429688 C 189.613281 240.574219 189.433594 239.703125 189.179688 238.820312 C 187.644531 233.445312 183.894531 228.949219 179.386719 227.074219 C 177.597656 226.339844 174.308594 224.972656 170.367188 225.988281 C 171.210938 222.519531 172.664062 218.605469 174.246094 214.375 L 174.914062 212.585938 C 175.660156 210.582031 176.59375 208.492188 177.597656 206.292969 C 182.953125 194.390625 190.292969 178.085938 182.324219 141.269531 C 179.335938 127.476562 169.375 120.742188 154.273438 122.304688 C 145.210938 123.242188 136.925781 126.894531 132.792969 128.988281 C 131.902344 129.4375 131.089844 129.871094 130.332031 130.296875 C 131.484375 116.398438 135.84375 90.429688 152.144531 74 C 162.410156 63.652344 176.074219 58.542969 192.734375 58.820312 C 225.550781 59.355469 246.589844 76.1875 258.464844 90.210938 C 268.703125 102.296875 274.242188 114.472656 276.457031 121.035156 C 259.828125 119.347656 248.511719 122.628906 242.78125 130.820312 C 230.300781 148.640625 249.601562 183.234375 258.875 199.851562 C 260.578125 202.894531 262.042969 205.53125 262.515625 206.652344 C 265.523438 213.964844 269.441406 218.847656 272.296875 222.421875 C 273.167969 223.511719 274.023438 224.574219 274.664062 225.492188 C 269.625 226.941406 260.578125 230.300781 261.402344 247.0625 C 260.738281 255.472656 256.007812 294.839844 253.601562 308.761719 C 250.433594 327.140625 243.664062 333.980469 224.644531 338.066406 Z M 306.984375 243.882812 C 301.835938 246.277344 293.214844 248.066406 285.027344 248.453125 C 275.984375 248.875 271.378906 247.4375 270.300781 246.554688 C 269.792969 236.113281 273.675781 235.015625 277.796875 233.867188 C 278.4375 233.683594 279.078125 233.503906 279.683594 233.296875 C 280.058594 233.601562 280.480469 233.902344 280.929688 234.203125 C 288.195312 239.003906 301.171875 239.523438 319.464844 235.738281 C 319.535156 235.726562 319.609375 235.714844 319.667969 235.703125 C 317.203125 238.011719 312.984375 241.105469 306.984375 243.882812 Z M 306.984375 243.882812 " fill-opacity="1" fill-rule="nonzero"/></svg>