<svg xmlns="http://www.w3.org/2000/svg" xmlns:xlink="http://www.w3.org/1999/xlink" width="500" zoomAndPan="magnify" viewBox="0 0 375 374.999991" height="500" preserveAspectRatio="xMidYMid meet" version="1.0"><defs><clipPath id="c426488d7f"><path d="M 44.90625 44.90625 L 329.90625 44.90625 L 329.90625 329.90625 L 44.90625 329.90625 Z M 44.90625 44.90625 " clip-rule="nonzero"/></clipPath><clipPath id="1db9d9fd28"><path d="M 44.90625 71.15625 L 44.90625 303.84375 C 44.90625 318.339844 56.660156 330.09375 71.15625 330.09375 L 303.84375 330.09375 C 318.339844 330.09375 330.09375 318.339844 330.09375 303.84375 L 330.09375 71.15625 C 330.09375 56.660156 318.339844 44.90625 303.84375 44.90625 L 71.15625 44.90625 C 56.660156 44.90625 44.90625 56.660156 44.90625 71.15625 " clip-rule="nonzero"/></clipPath></defs><g clip-path="url(#c426488d7f)"><g clip-path="url(#1db9d9fd28)"><path fill="#ffffff" d="M 44.90625 187.40625 L 44.90625 329.90625 L 329.90625 329.90625 L 329.90625 44.90625 L 44.90625 44.90625 Z M 240.84375 121.5 C 240.84375 125.0625 210.5625 155.34375 174.9375 189.1875 L 107.25 249.75 L 167.8125 182.0625 C 226.59375 121.5 240.84375 107.25 240.84375 121.5 Z M 258.65625 192.75 C 258.65625 196.3125 240.84375 214.125 219.46875 233.71875 L 178.5 267.5625 L 212.34375 226.59375 C 244.40625 189.1875 258.65625 178.5 258.65625 192.75 Z M 258.65625 192.75 " fill-opacity="1" fill-rule="nonzero"/></g></g></svg>