<svg xmlns="http://www.w3.org/2000/svg" xmlns:xlink="http://www.w3.org/1999/xlink" width="500" zoomAndPan="magnify" viewBox="0 0 375 374.999991" height="500" preserveAspectRatio="xMidYMid meet" version="1.0"><path fill="#ffffff" d="M 310.953125 208.75 C 299.019531 208.808594 288.679688 211.679688 280.011719 215.953125 C 276.84375 209.625 273.632812 204.054688 273.09375 199.914062 C 272.464844 195.082031 271.734375 192.195312 272.492188 186.4375 C 273.25 180.675781 276.585938 172.523438 276.53125 171.914062 C 276.480469 171.304688 275.785156 168.375 268.902344 168.320312 C 262.015625 168.273438 256.128906 169.644531 255.433594 171.464844 C 254.734375 173.28125 253.410156 177.375 252.589844 181.644531 C 251.382812 187.890625 238.847656 210.167969 231.726562 221.820312 C 229.398438 217.269531 227.417969 213.265625 227.007812 210.09375 C 226.378906 205.261719 225.648438 202.378906 226.40625 196.617188 C 227.164062 190.859375 230.496094 182.703125 230.441406 182.097656 C 230.394531 181.488281 229.699219 178.558594 222.8125 178.503906 C 215.929688 178.453125 210.039062 179.828125 209.34375 181.644531 C 208.648438 183.464844 207.910156 187.714844 206.503906 191.828125 C 205.089844 195.941406 188.425781 233.097656 184.058594 242.726562 C 181.832031 247.632812 179.902344 251.574219 178.535156 254.269531 C 178.527344 254.261719 178.527344 254.253906 178.527344 254.253906 C 178.527344 254.253906 178.445312 254.433594 178.296875 254.738281 C 177.128906 257.027344 176.429688 258.300781 176.429688 258.300781 C 176.429688 258.300781 176.4375 258.320312 176.453125 258.347656 C 175.523438 260.027344 174.53125 261.59375 174.039062 261.59375 C 173.699219 261.59375 173.007812 257.109375 174.191406 250.96875 C 176.671875 238.078125 182.625 217.972656 182.570312 217.285156 C 182.542969 216.929688 183.675781 213.429688 178.679688 211.589844 C 173.820312 209.816406 172.085938 212.78125 171.644531 212.789062 C 171.210938 212.792969 170.890625 213.832031 170.890625 213.832031 C 170.890625 213.832031 176.308594 191.226562 160.566406 191.226562 C 150.730469 191.226562 137.097656 201.996094 130.375 211.753906 C 126.140625 214.066406 117.070312 219.019531 107.449219 224.308594 C 103.753906 226.339844 99.984375 228.414062 96.40625 230.390625 C 96.160156 230.125 95.917969 229.851562 95.667969 229.585938 C 76.585938 209.214844 41.316406 194.808594 42.808594 167.425781 C 43.355469 157.46875 46.8125 131.253906 110.589844 99.457031 C 162.832031 73.40625 204.660156 80.574219 211.886719 96.464844 C 222.210938 119.15625 189.53125 161.34375 135.28125 167.425781 C 114.605469 169.742188 103.726562 161.726562 101.015625 158.738281 C 98.167969 155.59375 97.742188 155.453125 96.679688 156.046875 C 94.941406 157.011719 96.042969 159.785156 96.679688 161.4375 C 98.296875 165.65625 104.941406 173.136719 116.28125 176.855469 C 126.25 180.128906 150.519531 181.925781 179.875 170.566406 C 212.746094 157.84375 238.414062 122.453125 230.878906 92.867188 C 223.207031 62.78125 173.351562 52.890625 126.164062 69.660156 C 98.078125 79.644531 67.679688 95.316406 45.816406 115.769531 C 19.820312 140.097656 15.683594 161.265625 17.390625 170.109375 C 23.460938 201.546875 66.757812 222.011719 84.097656 237.183594 C 83.242188 237.65625 82.4375 238.097656 81.707031 238.503906 C 73.011719 242.808594 40.011719 260.089844 31.753906 278.351562 C 22.390625 299.0625 33.242188 313.925781 40.433594 315.929688 C 62.699219 322.128906 85.550781 310.972656 97.832031 292.644531 C 110.113281 274.324219 108.609375 250.46875 102.976562 239.574219 C 102.90625 239.4375 102.824219 239.308594 102.757812 239.171875 C 105.003906 237.839844 107.292969 236.492188 109.558594 235.160156 C 113.984375 232.5625 118.328125 230.136719 122.097656 228.082031 C 119.988281 233.863281 118.445312 240.792969 117.640625 250.804688 C 116.695312 262.5625 121.511719 277.761719 127.816406 283.742188 C 130.589844 286.375 133.929688 286.433594 136.046875 286.433594 C 143.382812 286.433594 146.726562 280.332031 150.410156 273.109375 C 154.929688 264.253906 158.941406 253.945312 158.941406 253.945312 C 158.941406 253.945312 153.90625 281.792969 167.621094 281.792969 C 172.613281 281.792969 177.640625 275.308594 179.878906 272.007812 C 179.886719 272.042969 179.886719 272.0625 179.886719 272.0625 C 179.886719 272.0625 180.015625 271.851562 180.269531 271.414062 C 180.789062 270.621094 181.082031 270.117188 181.082031 270.117188 C 181.082031 270.117188 181.097656 270.0625 181.109375 269.972656 C 183.117188 266.488281 187.570312 258.53125 194.25 245.410156 C 202.875 228.464844 211.152344 207.238281 211.152344 207.238281 C 211.152344 207.238281 211.925781 212.433594 214.445312 221.007812 C 215.929688 226.058594 219.082031 231.640625 221.570312 236.992188 C 219.570312 239.773438 218.339844 241.367188 218.339844 241.367188 C 218.339844 241.367188 218.351562 241.394531 218.375 241.449219 C 216.773438 243.574219 214.980469 245.863281 213.101562 248.105469 C 206.292969 256.222656 198.175781 265.488281 197.089844 268.167969 C 195.8125 271.316406 196.113281 273.640625 198.585938 275.5 C 200.390625 276.859375 203.605469 277.074219 206.96875 276.847656 C 213.085938 276.4375 217.398438 274.914062 219.519531 273.992188 C 222.832031 272.820312 226.691406 270.976562 230.3125 268.3125 C 236.992188 263.398438 241.019531 256.367188 240.640625 247.050781 C 240.425781 241.917969 238.789062 236.835938 236.71875 232.03125 C 237.328125 231.15625 237.933594 230.28125 238.542969 229.386719 C 249.074219 213.976562 257.242188 197.050781 257.242188 197.050781 C 257.242188 197.050781 258.015625 202.242188 260.535156 210.820312 C 261.8125 215.164062 264.332031 219.902344 266.59375 224.546875 C 256.6875 232.597656 250.550781 241.953125 248.410156 248.089844 C 244.46875 259.441406 247.558594 264.585938 253.347656 265.753906 C 255.972656 266.289062 259.679688 265.085938 262.46875 263.902344 C 265.9375 262.753906 270.101562 260.835938 273.996094 257.972656 C 280.675781 253.058594 287.101562 246.175781 286.714844 236.863281 C 286.535156 232.625 285.386719 228.414062 283.832031 224.371094 C 292.226562 220.871094 303.097656 218.925781 316.941406 220.542969 C 346.644531 224.015625 352.472656 242.570312 351.359375 250.332031 C 350.246094 258.101562 344.015625 262.367188 341.933594 263.65625 C 339.851562 264.949219 339.214844 265.394531 339.394531 266.351562 C 339.644531 267.746094 340.609375 267.691406 342.382812 267.390625 C 344.828125 266.980469 357.976562 261.074219 358.542969 246.738281 C 359.253906 228.574219 341.824219 208.585938 310.953125 208.75 Z M 82.027344 285.96875 C 72.191406 296.707031 58.445312 300.765625 52.550781 297.347656 C 46.183594 293.65625 48.703125 277.84375 60.78125 266.453125 C 68.136719 259.507812 77.636719 253.113281 83.941406 249.171875 C 85.375 248.308594 87.476562 247.039062 90.039062 245.5 C 90.460938 245.261719 90.703125 245.125 90.703125 245.125 L 90.695312 245.109375 C 91.1875 244.816406 91.699219 244.507812 92.21875 244.195312 C 96.609375 260.417969 92.355469 274.699219 82.027344 285.96875 Z M 153.695312 237.21875 C 150.265625 245.574219 143.09375 266.957031 138.730469 265.808594 C 134.980469 264.828125 132.699219 248.570312 137.976562 232.578125 C 140.636719 224.527344 146.3125 214.90625 149.652344 211.167969 C 155.019531 205.160156 160.933594 203.191406 162.367188 205.632812 C 164.207031 208.734375 155.84375 231.976562 153.695312 237.21875 Z M 212.910156 265.488281 C 211.453125 266.246094 210.121094 266.726562 209.507812 266.355469 C 209.050781 266.082031 210.109375 265.085938 210.109375 265.085938 C 210.109375 265.085938 217.511719 257.109375 220.4375 253.480469 C 222.128906 251.371094 224.105469 248.863281 226.242188 246.0625 C 226.261719 246.339844 226.269531 246.621094 226.269531 246.894531 C 226.242188 256.449219 217.019531 262.890625 212.910156 265.488281 Z M 258.527344 255.082031 C 257.441406 254.308594 257.625 251.816406 261.183594 244.050781 C 262.582031 241.003906 265.773438 235.863281 271.324219 230.957031 C 271.96875 232.972656 272.363281 234.90625 272.351562 236.710938 C 272.273438 248.734375 263.703125 253.222656 258.527344 255.082031 Z M 258.527344 255.082031 " fill-opacity="1" fill-rule="nonzero"/></svg>