<svg xmlns="http://www.w3.org/2000/svg" xmlns:xlink="http://www.w3.org/1999/xlink" width="500" zoomAndPan="magnify" viewBox="0 0 375 374.999991" height="500" preserveAspectRatio="xMidYMid meet" version="1.0"><path fill="#ffffff" d="M 345.316406 336.59375 L 29.644531 336.59375 C 28.09375 336.59375 26.570312 336.390625 25.070312 335.988281 C 23.574219 335.582031 22.152344 334.988281 20.8125 334.207031 C 19.472656 333.425781 18.257812 332.480469 17.167969 331.378906 C 16.074219 330.273438 15.148438 329.046875 14.382812 327.695312 C 13.621094 326.34375 13.042969 324.917969 12.660156 323.414062 C 12.273438 321.910156 12.089844 320.382812 12.109375 318.832031 C 12.128906 317.28125 12.351562 315.757812 12.773438 314.265625 C 13.199219 312.769531 13.808594 311.359375 14.605469 310.027344 L 172.441406 46.921875 C 172.636719 46.597656 172.839844 46.28125 173.054688 45.972656 C 173.269531 45.664062 173.492188 45.359375 173.726562 45.066406 C 173.960938 44.769531 174.203125 44.480469 174.453125 44.203125 C 174.707031 43.921875 174.96875 43.652344 175.238281 43.386719 C 175.507812 43.125 175.785156 42.871094 176.070312 42.625 C 176.355469 42.382812 176.652344 42.144531 176.953125 41.917969 C 177.253906 41.691406 177.5625 41.476562 177.875 41.269531 C 178.191406 41.0625 178.511719 40.867188 178.839844 40.683594 C 179.167969 40.496094 179.5 40.324219 179.839844 40.160156 C 180.179688 39.996094 180.523438 39.839844 180.871094 39.699219 C 181.222656 39.558594 181.574219 39.425781 181.929688 39.308594 C 182.289062 39.1875 182.648438 39.082031 183.011719 38.984375 C 183.378906 38.890625 183.746094 38.804688 184.113281 38.730469 C 184.484375 38.660156 184.855469 38.601562 185.226562 38.550781 C 185.601562 38.503906 185.976562 38.464844 186.351562 38.441406 C 186.726562 38.417969 187.105469 38.40625 187.480469 38.40625 C 187.859375 38.40625 188.234375 38.417969 188.609375 38.441406 C 188.984375 38.464844 189.359375 38.503906 189.734375 38.550781 C 190.105469 38.601562 190.476562 38.660156 190.847656 38.730469 C 191.21875 38.804688 191.585938 38.890625 191.949219 38.984375 C 192.3125 39.082031 192.671875 39.1875 193.03125 39.308594 C 193.386719 39.425781 193.742188 39.558594 194.089844 39.699219 C 194.4375 39.839844 194.78125 39.996094 195.121094 40.160156 C 195.460938 40.324219 195.792969 40.496094 196.121094 40.683594 C 196.449219 40.867188 196.769531 41.0625 197.085938 41.269531 C 197.402344 41.476562 197.710938 41.691406 198.011719 41.917969 C 198.3125 42.144531 198.605469 42.382812 198.890625 42.625 C 199.175781 42.871094 199.453125 43.125 199.722656 43.386719 C 199.992188 43.652344 200.253906 43.921875 200.507812 44.203125 C 200.757812 44.480469 201.003906 44.769531 201.234375 45.066406 C 201.46875 45.359375 201.691406 45.664062 201.90625 45.972656 C 202.121094 46.28125 202.324219 46.597656 202.519531 46.921875 L 360.355469 310.027344 C 361.152344 311.359375 361.765625 312.769531 362.1875 314.265625 C 362.613281 315.757812 362.832031 317.28125 362.851562 318.832031 C 362.871094 320.382812 362.6875 321.910156 362.304688 323.414062 C 361.917969 324.917969 361.34375 326.34375 360.578125 327.695312 C 359.8125 329.046875 358.886719 330.273438 357.796875 331.378906 C 356.707031 332.480469 355.488281 333.425781 354.148438 334.207031 C 352.808594 334.988281 351.390625 335.582031 349.890625 335.988281 C 348.394531 336.390625 346.867188 336.59375 345.316406 336.59375 Z M 60.617188 301.511719 L 314.347656 301.511719 L 187.480469 90.035156 Z M 60.617188 301.511719 " fill-opacity="1" fill-rule="nonzero"/></svg>