<svg xmlns="http://www.w3.org/2000/svg" xmlns:xlink="http://www.w3.org/1999/xlink" width="500" zoomAndPan="magnify" viewBox="0 0 375 374.999991" height="500" preserveAspectRatio="xMidYMid meet" version="1.0"><defs><clipPath id="496537e172"><path d="M 51 22.683594 L 324 22.683594 L 324 352 L 51 352 Z M 51 22.683594 " clip-rule="nonzero"/></clipPath></defs><g clip-path="url(#496537e172)"><path fill="#ffffff" d="M 322.148438 273.398438 L 208.976562 33.0625 C 206.113281 27.039062 200.175781 23.066406 193.511719 22.722656 C 186.832031 22.277344 180.460938 25.578125 176.976562 31.296875 L 54.230469 230.101562 C 50.417969 236.230469 50.5 244.011719 54.433594 250.058594 L 114.445312 342.996094 C 119.109375 350.160156 127.929688 353.402344 136.125 350.964844 L 310.277344 299.453125 C 315.582031 297.902344 319.953125 294.125 322.261719 289.101562 C 324.539062 284.105469 324.5 278.355469 322.15625 273.390625 Z M 296.808594 283.707031 L 149.03125 327.40625 C 144.523438 328.746094 140.195312 324.839844 141.132812 320.289062 L 193.929688 67.484375 C 194.917969 62.753906 201.449219 62.003906 203.515625 66.382812 L 301.253906 273.933594 C 302.125 275.804688 302.136719 277.964844 301.28125 279.847656 C 300.425781 281.726562 298.789062 283.136719 296.800781 283.707031 Z M 296.808594 283.707031 " fill-opacity="1" fill-rule="nonzero"/></g></svg>