<svg xmlns="http://www.w3.org/2000/svg" xmlns:xlink="http://www.w3.org/1999/xlink" width="500" zoomAndPan="magnify" viewBox="0 0 375 374.999991" height="500" preserveAspectRatio="xMidYMid meet" version="1.0"><defs><clipPath id="4f1a50d151"><path d="M 15.234375 82.230469 L 360.128906 82.230469 L 360.128906 289.148438 L 15.234375 289.148438 Z M 15.234375 82.230469 " clip-rule="nonzero"/></clipPath></defs><g clip-path="url(#4f1a50d151)"><path fill="#ffffff" d="M 187.683594 82.230469 C 141.695312 82.230469 112.957031 105.21875 101.457031 151.203125 C 118.703125 128.210938 138.820312 119.589844 161.816406 125.335938 C 174.933594 128.613281 184.308594 138.136719 194.6875 148.667969 C 211.59375 165.828125 231.164062 185.6875 273.90625 185.6875 C 319.890625 185.6875 348.632812 162.699219 360.128906 116.714844 C 342.882812 139.707031 322.765625 148.328125 299.773438 142.582031 C 286.652344 139.304688 277.277344 129.78125 266.898438 119.25 C 249.992188 102.089844 230.421875 82.230469 187.683594 82.230469 Z M 101.457031 185.6875 C 55.472656 185.6875 26.730469 208.679688 15.234375 254.660156 C 32.480469 231.671875 52.597656 223.046875 75.589844 228.796875 C 88.710938 232.078125 98.085938 241.59375 108.464844 252.125 C 125.371094 269.285156 144.941406 289.148438 187.683594 289.148438 C 233.667969 289.148438 262.410156 266.15625 273.90625 220.175781 C 256.660156 243.164062 236.542969 251.789062 213.550781 246.039062 C 200.429688 242.761719 191.054688 233.242188 180.675781 222.710938 C 163.769531 205.550781 144.199219 185.6875 101.457031 185.6875 Z M 101.457031 185.6875 " fill-opacity="1" fill-rule="evenodd"/></g></svg>