<svg xmlns="http://www.w3.org/2000/svg" xmlns:xlink="http://www.w3.org/1999/xlink" width="500" zoomAndPan="magnify" viewBox="0 0 375 374.999991" height="500" preserveAspectRatio="xMidYMid meet" version="1.0"><defs><clipPath id="4d1df5b60a"><path d="M 56 24.5 L 319 24.5 L 319 350.75 L 56 350.75 Z M 56 24.5 " clip-rule="nonzero"/></clipPath></defs><g clip-path="url(#4d1df5b60a)"><path fill="#ffffff" d="M 251.652344 27.804688 L 250.019531 64.640625 C 250 65.117188 250.109375 65.5625 250.347656 65.972656 C 250.585938 66.386719 250.917969 66.699219 251.339844 66.917969 C 251.765625 67.136719 252.210938 67.226562 252.6875 67.183594 C 253.160156 67.140625 253.585938 66.972656 253.960938 66.679688 L 268.371094 55.804688 L 280.605469 65.320312 C 280.972656 65.566406 281.375 65.703125 281.8125 65.730469 C 282.253906 65.757812 282.667969 65.675781 283.0625 65.476562 C 283.457031 65.28125 283.773438 65 284.015625 64.628906 C 284.257812 64.261719 284.390625 63.859375 284.414062 63.417969 L 283.054688 25.898438 L 301.132812 24.539062 C 301.6875 24.503906 302.246094 24.496094 302.804688 24.515625 C 303.359375 24.535156 303.914062 24.585938 304.464844 24.664062 C 305.019531 24.738281 305.566406 24.84375 306.105469 24.976562 C 306.648438 25.113281 307.179688 25.273438 307.707031 25.460938 C 308.230469 25.648438 308.746094 25.863281 309.246094 26.101562 C 309.75 26.34375 310.238281 26.609375 310.714844 26.898438 C 311.191406 27.191406 311.648438 27.503906 312.09375 27.84375 C 312.535156 28.179688 312.960938 28.539062 313.367188 28.921875 C 313.773438 29.304688 314.160156 29.703125 314.527344 30.125 C 314.890625 30.546875 315.234375 30.984375 315.554688 31.441406 C 315.875 31.898438 316.171875 32.367188 316.445312 32.855469 C 316.714844 33.339844 316.960938 33.839844 317.183594 34.351562 C 317.402344 34.863281 317.597656 35.386719 317.765625 35.917969 C 317.933594 36.449219 318.074219 36.988281 318.183594 37.535156 C 318.296875 38.082031 318.382812 38.628906 318.4375 39.183594 C 318.492188 39.738281 318.519531 40.296875 318.519531 40.851562 L 318.519531 334.425781 C 318.519531 334.976562 318.492188 335.527344 318.4375 336.074219 C 318.382812 336.625 318.300781 337.167969 318.1875 337.710938 C 318.078125 338.25 317.941406 338.785156 317.777344 339.308594 C 317.613281 339.835938 317.421875 340.351562 317.203125 340.859375 C 316.988281 341.367188 316.746094 341.863281 316.476562 342.34375 C 316.210938 342.828125 315.917969 343.296875 315.605469 343.75 C 315.289062 344.203125 314.953125 344.636719 314.59375 345.058594 C 314.234375 345.476562 313.855469 345.875 313.457031 346.257812 C 313.058594 346.636719 312.640625 346.996094 312.203125 347.335938 C 311.765625 347.671875 311.316406 347.988281 310.847656 348.28125 C 310.378906 348.574219 309.898438 348.839844 309.402344 349.082031 C 308.90625 349.328125 308.402344 349.542969 307.882812 349.738281 C 307.367188 349.929688 306.839844 350.09375 306.308594 350.234375 C 305.773438 350.371094 305.234375 350.484375 304.6875 350.566406 C 304.144531 350.652344 303.59375 350.707031 303.042969 350.734375 C 302.492188 350.761719 301.941406 350.765625 301.390625 350.738281 L 82.585938 340.949219 C 81.566406 340.90625 80.558594 340.769531 79.566406 340.539062 C 78.570312 340.308594 77.605469 339.988281 76.671875 339.574219 C 75.738281 339.164062 74.851562 338.667969 74.011719 338.089844 C 73.171875 337.511719 72.390625 336.859375 71.671875 336.136719 C 70.953125 335.410156 70.308594 334.625 69.738281 333.777344 C 69.167969 332.933594 68.679688 332.042969 68.277344 331.105469 C 67.871094 330.167969 67.558594 329.199219 67.335938 328.203125 C 67.113281 327.207031 66.988281 326.199219 66.953125 325.179688 L 56.757812 56.066406 C 56.726562 55.53125 56.71875 54.996094 56.742188 54.460938 C 56.761719 53.925781 56.808594 53.394531 56.882812 52.863281 C 56.953125 52.332031 57.054688 51.804688 57.175781 51.285156 C 57.300781 50.765625 57.453125 50.25 57.628906 49.746094 C 57.804688 49.238281 58.003906 48.742188 58.226562 48.257812 C 58.453125 47.769531 58.699219 47.296875 58.96875 46.835938 C 59.242188 46.375 59.53125 45.925781 59.847656 45.492188 C 60.164062 45.058594 60.5 44.644531 60.855469 44.242188 C 61.210938 43.84375 61.585938 43.460938 61.976562 43.097656 C 62.371094 42.734375 62.78125 42.394531 63.210938 42.070312 C 63.636719 41.746094 64.078125 41.445312 64.535156 41.167969 C 64.992188 40.886719 65.460938 40.632812 65.945312 40.398438 C 66.425781 40.167969 66.917969 39.957031 67.421875 39.773438 C 67.921875 39.589844 68.433594 39.429688 68.953125 39.296875 C 69.472656 39.160156 69.996094 39.050781 70.523438 38.96875 C 71.050781 38.886719 71.585938 38.832031 72.117188 38.800781 L 251.515625 27.519531 Z M 209.917969 150.921875 C 209.917969 157.3125 252.875 154.183594 258.71875 149.835938 C 258.71875 106.335938 235.339844 83.359375 192.667969 83.359375 C 149.847656 83.359375 126.074219 106.742188 126.074219 141.679688 C 126.074219 202.171875 207.621094 203.257812 207.621094 236.277344 C 207.621094 245.792969 203.269531 251.230469 193.347656 251.230469 C 180.296875 251.230469 174.996094 244.570312 175.675781 221.867188 C 175.675781 216.972656 126.074219 215.34375 124.441406 221.867188 C 120.769531 276.652344 154.753906 292.554688 193.753906 292.554688 C 231.683594 292.554688 261.304688 272.300781 261.304688 235.734375 C 261.304688 170.890625 178.394531 172.660156 178.394531 140.589844 C 178.394531 127.40625 188.183594 125.636719 193.753906 125.636719 C 199.871094 125.636719 210.746094 126.589844 209.933594 151.058594 Z M 209.917969 150.921875 " fill-opacity="1" fill-rule="nonzero"/></g></svg>