<svg xmlns="http://www.w3.org/2000/svg" xmlns:xlink="http://www.w3.org/1999/xlink" width="500" zoomAndPan="magnify" viewBox="0 0 375 374.999991" height="500" preserveAspectRatio="xMidYMid meet" version="1.0"><defs><clipPath id="542f88170b"><path d="M 23 58 L 352 58 L 352 352 L 23 352 Z M 23 58 " clip-rule="nonzero"/></clipPath><clipPath id="99b7d322c3"><path d="M 350.644531 71.371094 L 196.402344 347.203125 C 193.214844 352.898438 185.035156 352.933594 181.800781 347.265625 L 24.5 71.394531 C 20.976562 65.21875 26.257812 57.738281 33.257812 58.992188 L 187.667969 86.589844 C 188.660156 86.769531 189.652344 86.765625 190.644531 86.585938 L 341.824219 59.03125 C 348.800781 57.757812 354.105469 65.183594 350.644531 71.371094 Z M 350.644531 71.371094 " clip-rule="nonzero"/></clipPath><clipPath id="66c486b3e3"><path d="M 136 22.183594 L 288 22.183594 L 288 298 L 136 298 Z M 136 22.183594 " clip-rule="nonzero"/></clipPath><clipPath id="c71c841248"><path d="M 261.21875 22.785156 L 147.074219 45.15625 C 146.621094 45.242188 146.191406 45.40625 145.789062 45.636719 C 145.386719 45.867188 145.03125 46.160156 144.726562 46.507812 C 144.417969 46.859375 144.179688 47.25 144.003906 47.679688 C 143.824219 48.109375 143.722656 48.558594 143.695312 49.019531 L 136.675781 167.617188 C 136.65625 167.941406 136.675781 168.265625 136.730469 168.585938 C 136.785156 168.90625 136.878906 169.214844 137.007812 169.515625 C 137.136719 169.816406 137.296875 170.097656 137.492188 170.359375 C 137.683594 170.621094 137.90625 170.855469 138.152344 171.066406 C 138.402344 171.277344 138.671875 171.457031 138.964844 171.601562 C 139.253906 171.75 139.558594 171.863281 139.875 171.9375 C 140.191406 172.015625 140.511719 172.054688 140.835938 172.058594 C 141.164062 172.058594 141.484375 172.023438 141.800781 171.949219 L 173.582031 164.613281 C 176.554688 163.929688 179.242188 166.546875 178.628906 169.539062 L 169.1875 215.777344 C 168.554688 218.886719 171.476562 221.546875 174.511719 220.625 L 194.144531 214.660156 C 197.183594 213.738281 200.109375 216.40625 199.464844 219.519531 L 184.460938 292.148438 C 183.523438 296.695312 189.566406 299.171875 192.085938 295.277344 L 193.769531 292.675781 L 286.78125 107.039062 C 288.339844 103.929688 285.652344 100.386719 282.238281 101.046875 L 249.527344 107.359375 C 246.453125 107.953125 243.835938 105.089844 244.703125 102.082031 L 266.054688 28.0625 C 266.921875 25.046875 264.296875 22.183594 261.21875 22.785156 Z M 261.21875 22.785156 " clip-rule="nonzero"/></clipPath></defs><g clip-path="url(#542f88170b)"><g clip-path="url(#99b7d322c3)"><path fill="#ffffff" d="M 20.976562 57.738281 L 20.976562 352.933594 L 354.105469 352.933594 L 354.105469 57.738281 Z M 20.976562 57.738281 " fill-opacity="1" fill-rule="nonzero"/></g></g><g clip-path="url(#66c486b3e3)"><g clip-path="url(#c71c841248)"><path fill="#cfd8dc" d="M 136.65625 22.183594 L 136.65625 299.171875 L 288.339844 299.171875 L 288.339844 22.183594 Z M 136.65625 22.183594 " fill-opacity="1" fill-rule="nonzero"/></g></g></svg>