<svg xmlns="http://www.w3.org/2000/svg" xmlns:xlink="http://www.w3.org/1999/xlink" width="500" zoomAndPan="magnify" viewBox="0 0 375 374.999991" height="500" preserveAspectRatio="xMidYMid meet" version="1.0"><defs><clipPath id="8e1eb91c41"><path d="M 32.222656 19.40625 L 342.722656 19.40625 L 342.722656 355.40625 L 32.222656 355.40625 Z M 32.222656 19.40625 " clip-rule="nonzero"/></clipPath></defs><g clip-path="url(#8e1eb91c41)"><path fill="#ffffff" d="M 187.398438 19.40625 C 182.679688 19.40625 177.960938 20.5625 173.890625 22.890625 L 45.773438 96.820312 C 37.5 101.601562 32.339844 110.652344 32.339844 120.214844 L 32.339844 254.34375 C 32.339844 264.035156 37.5 272.960938 45.773438 277.742188 L 79.40625 297.125 C 95.695312 305.140625 101.503906 305.128906 108.871094 305.128906 C 133.046875 305.128906 146.871094 290.527344 146.871094 265.199219 L 146.871094 126.804688 C 146.871094 124.738281 145.203125 123.042969 143.136719 123.042969 L 126.976562 123.042969 C 124.777344 123.042969 123.214844 124.738281 123.214844 126.804688 L 123.214844 265.070312 C 123.214844 276.445312 111.460938 287.554688 92.457031 278.121094 L 57.285156 257.828125 C 55.992188 257.179688 55.214844 255.765625 55.214844 254.34375 L 55.214844 120.34375 C 55.214844 118.792969 55.992188 117.484375 57.285156 116.707031 L 185.402344 42.804688 C 186.566406 42.027344 188.125 42.027344 189.417969 42.804688 L 317.535156 116.707031 C 318.828125 117.484375 319.605469 118.796875 319.605469 120.214844 L 319.605469 254.34375 C 319.605469 255.765625 318.824219 257.179688 317.660156 257.828125 L 189.417969 331.882812 C 188.253906 332.527344 186.566406 332.527344 185.402344 331.882812 L 152.425781 312.371094 C 151.523438 311.726562 150.25 311.601562 149.347656 312.121094 C 140.167969 317.289062 138.488281 317.929688 129.953125 320.902344 C 127.886719 321.550781 124.652344 322.835938 131.117188 326.457031 L 173.890625 351.796875 C 178.027344 354.125 182.695312 355.40625 187.347656 355.40625 C 192.128906 355.40625 196.769531 354.125 200.90625 351.796875 L 329.175781 277.742188 C 337.449219 272.960938 342.609375 264.035156 342.609375 254.34375 L 342.609375 120.34375 C 342.609375 110.652344 337.449219 101.726562 329.175781 96.945312 L 200.90625 22.890625 C 196.835938 20.5625 192.117188 19.40625 187.398438 19.40625 Z M 221.863281 122.867188 C 185.277344 122.867188 163.4375 138.363281 163.4375 164.210938 C 163.4375 192.253906 185.132812 199.996094 220.296875 203.484375 C 262.3125 207.621094 265.546875 213.839844 265.546875 222.113281 C 265.546875 236.328125 254.058594 242.40625 227.039062 242.40625 C 193.039062 242.40625 185.535156 233.863281 183.082031 217.0625 C 182.820312 215.253906 181.28125 213.960938 179.46875 213.960938 L 162.78125 213.960938 C 160.710938 213.960938 159.167969 215.65625 159.167969 217.59375 C 159.167969 239.175781 170.933594 264.871094 227.039062 264.871094 C 267.632812 264.871094 290.898438 248.863281 290.898438 220.949219 C 290.898438 193.296875 272.148438 185.914062 232.847656 180.617188 C 192.902344 175.449219 188.886719 172.734375 188.886719 163.429688 C 188.886719 155.675781 192.386719 145.480469 221.863281 145.480469 C 248.109375 145.480469 257.925781 151.148438 261.933594 168.855469 C 262.324219 170.535156 263.734375 171.832031 265.546875 171.832031 L 282.234375 171.832031 C 283.269531 171.832031 284.164062 171.320312 284.9375 170.546875 C 285.585938 169.898438 285.976562 168.855469 285.847656 167.695312 C 283.261719 137.195312 262.976562 122.867188 221.863281 122.867188 Z M 221.863281 122.867188 " fill-opacity="1" fill-rule="nonzero"/></g></svg>