<svg xmlns="http://www.w3.org/2000/svg" xmlns:xlink="http://www.w3.org/1999/xlink" width="575" zoomAndPan="magnify" viewBox="0 0 431.25 393.749989" height="525" preserveAspectRatio="xMidYMid meet" version="1.0"><defs><clipPath id="cb2b5096c6"><path d="M 162 51.011719 L 395 51.011719 L 395 324 L 162 324 Z M 162 51.011719 " clip-rule="nonzero"/></clipPath><clipPath id="37927d62e2"><path d="M 361.304688 84.710938 C 351.355469 72.90625 339.234375 62.445312 324.742188 56.699219 C 314.425781 52.609375 303.191406 51.011719 292.070312 51.152344 C 245.136719 51.839844 202.457031 84.570312 182.90625 126.332031 C 165.753906 163.035156 153.894531 226.40625 169.214844 263.878906 C 184.507812 301.355469 210.148438 321.21875 249.507812 322.933594 C 311.480469 330.109375 358.445312 287.40625 381.625 238.039062 C 404.808594 188.671875 396.578125 126.671875 361.304688 84.710938 " clip-rule="nonzero"/></clipPath><clipPath id="9e59bfcd4e"><path d="M 39 19 L 235 19 L 235 301 L 39 301 Z M 39 19 " clip-rule="nonzero"/></clipPath><clipPath id="30f72f68a9"><path d="M 58.851562 45.199219 C 94.566406 13.144531 160.539062 6.242188 184.308594 55.765625 C 193.671875 76.414062 188.628906 99.828125 191.390625 121.617188 C 195.234375 151.808594 218.523438 174.621094 229.03125 202.292969 C 257.121094 270.546875 179.566406 305.660156 123.140625 300.078125 C 93.546875 300.019531 58.851562 292.09375 44.925781 262.980469 C 30.699219 231.46875 48.34375 196.652344 49.003906 163.9375 C 49.847656 124.4375 22.832031 76.65625 58.851562 45.199219 " clip-rule="nonzero"/></clipPath><clipPath id="f39eb01e2e"><path d="M 199.679688 19.867188 L 231.125 19.867188 L 231.125 51.3125 L 199.679688 51.3125 Z M 199.679688 19.867188 " clip-rule="nonzero"/></clipPath><clipPath id="d6bf725930"><path d="M 37 194 L 238.425781 194 L 238.425781 371.746094 L 37 371.746094 Z M 37 194 " clip-rule="nonzero"/></clipPath></defs><g clip-path="url(#cb2b5096c6)"><g clip-path="url(#37927d62e2)"><path fill="#f5f5f5" d="M 153.894531 51.011719 L 404.808594 51.011719 L 404.808594 330.109375 L 153.894531 330.109375 Z M 153.894531 51.011719 " fill-opacity="1" fill-rule="nonzero"/></g></g><g clip-path="url(#9e59bfcd4e)"><g clip-path="url(#30f72f68a9)"><path fill="#e8eaf6" d="M 39.402344 19.867188 L 234.972656 19.867188 L 234.972656 300.679688 L 39.402344 300.679688 Z M 39.402344 19.867188 " fill-opacity="1" fill-rule="nonzero"/></g></g><g clip-path="url(#f39eb01e2e)"><path fill="#7986cb" d="M 215.402344 51.3125 C 206.734375 51.3125 199.679688 44.261719 199.679688 35.59375 C 199.679688 26.921875 206.734375 19.867188 215.402344 19.867188 C 224.074219 19.867188 231.125 26.921875 231.125 35.59375 C 231.125 44.261719 224.074219 51.3125 215.402344 51.3125 Z M 215.402344 20.96875 C 207.339844 20.96875 200.777344 27.527344 200.777344 35.59375 C 200.777344 43.65625 207.339844 50.214844 215.402344 50.214844 C 223.464844 50.214844 230.027344 43.65625 230.027344 35.59375 C 230.027344 27.527344 223.464844 20.96875 215.402344 20.96875 Z M 215.402344 20.96875 " fill-opacity="1" fill-rule="nonzero"/></g><g clip-path="url(#d6bf725930)"><path fill="#9fa8da" d="M 128.664062 371.375 C 125.570312 371.375 122.480469 371.25 119.328125 370.945312 L 118.027344 370.820312 C 91.066406 368.351562 60.457031 365.640625 46.050781 342.574219 C 39.0625 331.289062 36.28125 317.597656 37.886719 301.8125 C 39.125 289.476562 43.019531 275.664062 49.761719 259.628906 C 54.398438 248.589844 61.757812 232.371094 71.898438 219.484375 C 82.410156 206.164062 94.160156 198.332031 107.761719 195.492188 L 107.886719 196.109375 L 107.761719 195.492188 C 131.757812 190.558594 151.851562 206.78125 171.207031 222.503906 C 175.164062 225.710938 179.183594 228.980469 183.203125 232.003906 C 187.472656 235.269531 192.171875 238.476562 196.746094 241.621094 C 217.214844 255.746094 238.425781 270.421875 238.363281 294.289062 C 238.300781 320.3125 212.949219 336.160156 190.5625 350.222656 C 187.902344 351.886719 185.429688 353.429688 182.894531 355.03125 C 166.011719 365.949219 147.832031 371.375 128.664062 371.375 Z M 116.542969 195.863281 C 113.761719 195.863281 110.917969 196.171875 108.011719 196.726562 C 78.390625 202.832031 61.941406 233.789062 50.933594 260.125 C 44.257812 276.035156 40.359375 289.664062 39.125 301.933594 C 37.515625 317.476562 40.238281 330.921875 47.101562 341.898438 C 61.199219 364.46875 91.4375 367.179688 118.152344 369.585938 L 119.449219 369.710938 C 141.710938 371.746094 162.859375 366.441406 182.214844 354.046875 C 184.6875 352.441406 187.222656 350.902344 189.882812 349.234375 C 212.019531 335.359375 237.0625 319.695312 237.125 294.351562 C 237.1875 271.101562 216.285156 256.671875 196.066406 242.671875 C 191.492188 239.527344 186.789062 236.257812 182.460938 232.988281 C 178.441406 229.96875 174.363281 226.636719 170.464844 223.429688 C 153.644531 209.925781 136.332031 195.863281 116.542969 195.863281 Z M 116.542969 195.863281 " fill-opacity="1" fill-rule="nonzero"/></g></svg>