<svg xmlns="http://www.w3.org/2000/svg" xmlns:xlink="http://www.w3.org/1999/xlink" width="550" zoomAndPan="magnify" viewBox="0 0 412.5 112.499997" height="150" preserveAspectRatio="xMidYMid meet" version="1.0"><defs><g/><clipPath id="3d019c6459"><path d="M 10.328125 69.578125 L 46.996094 69.578125 L 46.996094 101.660156 L 10.328125 101.660156 Z M 10.328125 69.578125 " clip-rule="nonzero"/></clipPath><clipPath id="3ec514aa36"><path d="M 28.664062 101.660156 L 10.328125 69.578125 L 46.996094 69.578125 L 28.664062 101.660156 " clip-rule="nonzero"/></clipPath><clipPath id="18bc194c37"><path d="M 10.347656 69.59375 L 46.996094 69.59375 L 46.996094 101.660156 L 10.347656 101.660156 Z M 10.347656 69.59375 " clip-rule="nonzero"/></clipPath><clipPath id="1440648b5c"><path d="M 28.671875 101.660156 L 10.347656 69.59375 L 46.996094 69.59375 L 28.671875 101.660156 " clip-rule="nonzero"/></clipPath><clipPath id="ca90d62c8f"><path d="M 28.664062 52.933594 L 84.292969 52.933594 L 84.292969 101.664062 L 28.664062 101.664062 Z M 28.664062 52.933594 " clip-rule="nonzero"/></clipPath><clipPath id="6e9d1e8772"><path d="M 56.480469 52.933594 L 84.292969 52.933594 L 56.480469 101.664062 L 28.664062 101.664062 L 56.480469 52.933594 " clip-rule="nonzero"/></clipPath><clipPath id="5771f5ddde"><path d="M 28.664062 52.933594 L 84.261719 52.933594 L 84.261719 101.660156 L 28.664062 101.660156 Z M 28.664062 52.933594 " clip-rule="nonzero"/></clipPath><clipPath id="5629e9bcef"><path d="M 56.464844 52.933594 L 84.261719 52.933594 L 56.464844 101.660156 L 28.664062 101.660156 L 56.464844 52.933594 " clip-rule="nonzero"/></clipPath><clipPath id="f810504d0b"><path d="M 47.039062 10.472656 L 83.707031 10.472656 L 83.707031 42.558594 L 47.039062 42.558594 Z M 47.039062 10.472656 " clip-rule="nonzero"/></clipPath><clipPath id="c86e53b275"><path d="M 65.375 10.472656 L 83.707031 42.558594 L 47.039062 42.558594 L 65.375 10.472656 " clip-rule="nonzero"/></clipPath><clipPath id="9646981be6"><path d="M 47.039062 10.472656 L 83.6875 10.472656 L 83.6875 42.539062 L 47.039062 42.539062 Z M 47.039062 10.472656 " clip-rule="nonzero"/></clipPath><clipPath id="8970553db6"><path d="M 65.363281 10.472656 L 83.6875 42.539062 L 47.039062 42.539062 L 65.363281 10.472656 " clip-rule="nonzero"/></clipPath><clipPath id="45484985fe"><path d="M 9.742188 10.472656 L 65.371094 10.472656 L 65.371094 59.203125 L 9.742188 59.203125 Z M 9.742188 10.472656 " clip-rule="nonzero"/></clipPath><clipPath id="5a034b60a3"><path d="M 37.554688 59.203125 L 9.742188 59.203125 L 37.554688 10.472656 L 65.371094 10.472656 L 37.554688 59.203125 " clip-rule="nonzero"/></clipPath><clipPath id="044fa97119"><path d="M 9.773438 10.476562 L 65.371094 10.476562 L 65.371094 59.203125 L 9.773438 59.203125 Z M 9.773438 10.476562 " clip-rule="nonzero"/></clipPath><clipPath id="a5978b2f9c"><path d="M 37.570312 59.203125 L 9.773438 59.203125 L 37.570312 10.476562 L 65.371094 10.476562 L 37.570312 59.203125 " clip-rule="nonzero"/></clipPath></defs><g fill="#2f2f42" fill-opacity="1"><g transform="translate(99.275109, 74.715358)"><g><path d="M 15.984375 0.375 C 13.515625 0.375 11.304688 -0.0625 9.359375 -0.9375 C 7.410156 -1.8125 5.878906 -3.023438 4.765625 -4.578125 C 3.660156 -6.140625 3.09375 -7.941406 3.0625 -9.984375 L 8.265625 -9.984375 C 8.441406 -8.222656 9.164062 -6.742188 10.4375 -5.546875 C 11.707031 -4.347656 13.554688 -3.75 15.984375 -3.75 C 18.316406 -3.75 20.148438 -4.332031 21.484375 -5.5 C 22.828125 -6.664062 23.5 -8.160156 23.5 -9.984375 C 23.5 -11.410156 23.101562 -12.570312 22.3125 -13.46875 C 21.53125 -14.363281 20.546875 -15.039062 19.359375 -15.5 C 18.179688 -15.96875 16.59375 -16.472656 14.59375 -17.015625 C 12.125 -17.648438 10.144531 -18.289062 8.65625 -18.9375 C 7.175781 -19.582031 5.90625 -20.59375 4.84375 -21.96875 C 3.789062 -23.34375 3.265625 -25.195312 3.265625 -27.53125 C 3.265625 -29.5625 3.785156 -31.363281 4.828125 -32.9375 C 5.867188 -34.519531 7.328125 -35.738281 9.203125 -36.59375 C 11.078125 -37.445312 13.234375 -37.875 15.671875 -37.875 C 19.171875 -37.875 22.039062 -37 24.28125 -35.25 C 26.519531 -33.5 27.78125 -31.175781 28.0625 -28.28125 L 22.703125 -28.28125 C 22.515625 -29.707031 21.757812 -30.96875 20.4375 -32.0625 C 19.113281 -33.15625 17.363281 -33.703125 15.1875 -33.703125 C 13.144531 -33.703125 11.476562 -33.171875 10.1875 -32.109375 C 8.90625 -31.054688 8.265625 -29.582031 8.265625 -27.6875 C 8.265625 -26.320312 8.644531 -25.210938 9.40625 -24.359375 C 10.175781 -23.503906 11.125 -22.851562 12.25 -22.40625 C 13.382812 -21.957031 14.972656 -21.445312 17.015625 -20.875 C 19.484375 -20.195312 21.46875 -19.523438 22.96875 -18.859375 C 24.46875 -18.203125 25.753906 -17.179688 26.828125 -15.796875 C 27.898438 -14.421875 28.4375 -12.550781 28.4375 -10.1875 C 28.4375 -8.363281 27.953125 -6.644531 26.984375 -5.03125 C 26.023438 -3.425781 24.597656 -2.125 22.703125 -1.125 C 20.804688 -0.125 18.566406 0.375 15.984375 0.375 Z M 15.984375 0.375 "/></g></g></g><g fill="#2f2f42" fill-opacity="1"><g transform="translate(141.507664, 74.715358)"><g><path d="M 9.015625 -33.421875 L 9.015625 -20.921875 L 22.640625 -20.921875 L 22.640625 -16.90625 L 9.015625 -16.90625 L 9.015625 -4.03125 L 24.25 -4.03125 L 24.25 0 L 4.125 0 L 4.125 -37.453125 L 24.25 -37.453125 L 24.25 -33.421875 Z M 9.015625 -33.421875 "/></g></g></g><g fill="#2f2f42" fill-opacity="1"><g transform="translate(179.769208, 74.715358)"><g><path d="M 42.0625 -37.125 L 42.0625 0 L 37.1875 0 L 37.1875 -27.6875 L 24.84375 0 L 21.40625 0 L 9.015625 -27.734375 L 9.015625 0 L 4.125 0 L 4.125 -37.125 L 9.390625 -37.125 L 23.125 -6.4375 L 36.859375 -37.125 Z M 42.0625 -37.125 "/></g></g></g><g fill="#2f2f42" fill-opacity="1"><g transform="translate(236.705247, 74.715358)"><g><path d="M 9.015625 -33.421875 L 9.015625 -20.921875 L 22.640625 -20.921875 L 22.640625 -16.90625 L 9.015625 -16.90625 L 9.015625 -4.03125 L 24.25 -4.03125 L 24.25 0 L 4.125 0 L 4.125 -37.453125 L 24.25 -37.453125 L 24.25 -33.421875 Z M 9.015625 -33.421875 "/></g></g></g><g fill="#2f2f42" fill-opacity="1"><g transform="translate(274.966787, 74.715358)"><g><path d="M 23.828125 0 L 14.921875 -15.296875 L 9.015625 -15.296875 L 9.015625 0 L 4.125 0 L 4.125 -37.40625 L 16.203125 -37.40625 C 19.023438 -37.40625 21.410156 -36.921875 23.359375 -35.953125 C 25.316406 -34.984375 26.773438 -33.675781 27.734375 -32.03125 C 28.703125 -30.382812 29.1875 -28.507812 29.1875 -26.40625 C 29.1875 -23.820312 28.441406 -21.546875 26.953125 -19.578125 C 25.472656 -17.617188 23.25 -16.316406 20.28125 -15.671875 L 29.671875 0 Z M 9.015625 -19.203125 L 16.203125 -19.203125 C 18.847656 -19.203125 20.832031 -19.851562 22.15625 -21.15625 C 23.476562 -22.46875 24.140625 -24.21875 24.140625 -26.40625 C 24.140625 -28.613281 23.488281 -30.328125 22.1875 -31.546875 C 20.882812 -32.765625 18.890625 -33.375 16.203125 -33.375 L 9.015625 -33.375 Z M 9.015625 -19.203125 "/></g></g></g><g fill="#2f2f42" fill-opacity="1"><g transform="translate(318.326263, 74.715358)"><g><path d="M 26.234375 -8.3125 L 9.921875 -8.3125 L 6.921875 0 L 1.765625 0 L 15.296875 -37.1875 L 20.921875 -37.1875 L 34.390625 0 L 29.25 0 Z M 24.84375 -12.28125 L 18.078125 -31.171875 L 11.328125 -12.28125 Z M 24.84375 -12.28125 "/></g></g></g><g fill="#2f2f42" fill-opacity="1"><g transform="translate(365.227439, 74.715358)"><g><path d="M 24.40625 0 L 9.015625 -17.0625 L 9.015625 0 L 4.125 0 L 4.125 -37.40625 L 9.015625 -37.40625 L 9.015625 -20.0625 L 24.46875 -37.40625 L 30.640625 -37.40625 L 13.6875 -18.671875 L 30.796875 0 Z M 24.40625 0 "/></g></g></g><g clip-path="url(#3d019c6459)"><g clip-path="url(#3ec514aa36)"><path fill="#49495b" d="M 46.996094 101.660156 L 10.328125 101.660156 L 10.328125 69.578125 L 46.996094 69.578125 Z M 46.996094 101.660156 " fill-opacity="1" fill-rule="nonzero"/></g></g><g clip-path="url(#18bc194c37)"><g clip-path="url(#1440648b5c)"><path stroke-linecap="butt" transform="matrix(-0.208139, 0, 0, -0.208147, 46.995321, 101.661463)" fill="none" stroke-linejoin="miter" d="M 88.034833 0.00627911 L 176.073381 154.063175 L -0.00371494 154.063175 L 88.034833 0.00627911 " stroke="#49495b" stroke-width="57.442856" stroke-opacity="1" stroke-miterlimit="4"/></g></g><g clip-path="url(#ca90d62c8f)"><g clip-path="url(#6e9d1e8772)"><path fill="#2f2f42" d="M 28.664062 52.933594 L 84.292969 52.933594 L 84.292969 101.664062 L 28.664062 101.664062 Z M 28.664062 52.933594 " fill-opacity="1" fill-rule="nonzero"/></g></g><g clip-path="url(#5771f5ddde)"><g clip-path="url(#5629e9bcef)"><path stroke-linecap="butt" transform="matrix(0.208121, 0, 0, 0.208217, 28.664659, 52.933353)" fill="none" stroke-linejoin="miter" d="M 133.576804 0.00115683 L 267.137704 0.00115683 L 133.576804 234.01927 L -0.00286441 234.01927 L 133.576804 0.00115683 " stroke="#2f2f42" stroke-width="57.442856" stroke-opacity="1" stroke-miterlimit="4"/></g></g><g clip-path="url(#f810504d0b)"><g clip-path="url(#c86e53b275)"><path fill="#49495b" d="M 47.039062 10.472656 L 83.707031 10.472656 L 83.707031 42.558594 L 47.039062 42.558594 Z M 47.039062 10.472656 " fill-opacity="1" fill-rule="nonzero"/></g></g><g clip-path="url(#9646981be6)"><g clip-path="url(#8970553db6)"><path stroke-linecap="butt" transform="matrix(0.208139, 0, 0, 0.208147, 47.040401, 10.473339)" fill="none" stroke-linejoin="miter" d="M 88.032118 -0.00328091 L 176.070666 154.053615 L -0.00643066 154.053615 L 88.032118 -0.00328091 " stroke="#49495b" stroke-width="57.442856" stroke-opacity="1" stroke-miterlimit="4"/></g></g><g clip-path="url(#45484985fe)"><g clip-path="url(#5a034b60a3)"><path fill="#2f2f42" d="M 65.371094 59.203125 L 9.742188 59.203125 L 9.742188 10.472656 L 65.371094 10.472656 Z M 65.371094 59.203125 " fill-opacity="1" fill-rule="nonzero"/></g></g><g clip-path="url(#044fa97119)"><g clip-path="url(#a5978b2f9c)"><path stroke-linecap="butt" transform="matrix(-0.208121, 0, 0, -0.208217, 65.370867, 59.202592)" fill="none" stroke-linejoin="miter" d="M 133.578579 -0.00255817 L 267.139479 -0.00255817 L 133.578579 234.015555 L -0.00108988 234.015555 L 133.578579 -0.00255817 " stroke="#2f2f42" stroke-width="57.442856" stroke-opacity="1" stroke-miterlimit="4"/></g></g></svg>